<?xml version="1.0" encoding="utf-8"?>
<!-- Generator: Adobe Illustrator 23.1.0, SVG Export Plug-In . SVG Version: 6.00 Build 0)  -->
<svg version="1.1" id="Layer_1" xmlns="http://www.w3.org/2000/svg" xmlns:xlink="http://www.w3.org/1999/xlink" x="0px" y="0px"
	 viewBox="0 0 1920 690" style="enable-background:new 0 0 1920 690;" xml:space="preserve">
<style type="text/css">
	.st0{fill:url(#SVGID_1_);}
	.st1{opacity:0.4;}
	.st2{clip-path:url(#SVGID_4_);}
	.st3{clip-path:url(#SVGID_5_);fill:none;}
	.st4{fill:#66C1EC;}
	.st5{fill:#0F5482;}
	.st6{fill:#FFFFFF;}
	.st7{opacity:0.17;}
	.st8{clip-path:url(#SVGID_8_);}
	.st9{clip-path:url(#SVGID_9_);}
	.st10{clip-path:url(#SVGID_12_);}
	.st11{clip-path:url(#SVGID_13_);}
	.st12{clip-path:url(#SVGID_16_);}
	.st13{clip-path:url(#SVGID_17_);}
	.st14{clip-path:url(#SVGID_20_);}
	.st15{clip-path:url(#SVGID_21_);}
	.st16{fill:#0899CC;}
	.st17{fill:#C2C2C2;}
	.st18{fill:none;stroke:#0899CC;stroke-miterlimit:10;}
	.st19{opacity:0.5;}
	.st20{clip-path:url(#SVGID_24_);}
	.st21{clip-path:url(#SVGID_25_);fill:#FFFFFF;}
	.st22{clip-path:url(#SVGID_28_);}
	.st23{clip-path:url(#SVGID_29_);fill:#FFFFFF;}
	.st24{clip-path:url(#SVGID_32_);}
	.st25{clip-path:url(#SVGID_33_);fill:#FFFFFF;}
	.st26{clip-path:url(#SVGID_36_);}
	.st27{clip-path:url(#SVGID_37_);fill:#FFFFFF;}
	.st28{clip-path:url(#SVGID_40_);}
	.st29{clip-path:url(#SVGID_41_);fill:#FFFFFF;}
	.st30{clip-path:url(#SVGID_44_);}
	.st31{clip-path:url(#SVGID_45_);fill:#FFFFFF;}
	.st32{clip-path:url(#SVGID_48_);}
	.st33{clip-path:url(#SVGID_49_);fill:#FFFFFF;}
	.st34{clip-path:url(#SVGID_52_);}
	.st35{clip-path:url(#SVGID_53_);fill:#FFFFFF;}
	.st36{clip-path:url(#SVGID_56_);}
	.st37{clip-path:url(#SVGID_57_);fill:#FFFFFF;}
	.st38{clip-path:url(#SVGID_60_);}
	.st39{clip-path:url(#SVGID_61_);fill:#FFFFFF;}
	.st40{clip-path:url(#SVGID_64_);}
	.st41{clip-path:url(#SVGID_65_);fill:#FFFFFF;}
	.st42{clip-path:url(#SVGID_68_);}
	.st43{clip-path:url(#SVGID_69_);fill:#FFFFFF;}
	.st44{clip-path:url(#SVGID_72_);}
	.st45{clip-path:url(#SVGID_73_);fill:#FFFFFF;}
	.st46{clip-path:url(#SVGID_76_);}
	.st47{clip-path:url(#SVGID_77_);fill:#FFFFFF;}
	.st48{clip-path:url(#SVGID_80_);}
	.st49{clip-path:url(#SVGID_81_);fill:#FFFFFF;}
	.st50{clip-path:url(#SVGID_84_);}
	.st51{clip-path:url(#SVGID_85_);fill:#FFFFFF;}
	.st52{clip-path:url(#SVGID_88_);}
	.st53{clip-path:url(#SVGID_89_);fill:#FFFFFF;}
	.st54{fill:none;stroke:#A3A3A3;}
	.st55{fill:none;stroke:#BFBFBF;}
	.st56{fill:#C5CC00;}
	.st57{fill:#0C3B60;}
	.st58{fill:#FF3100;}
	.st59{fill:none;stroke:#A3A3A3;stroke-miterlimit:10;}
	.st60{fill:none;stroke:#000000;stroke-miterlimit:10;}
	.st61{fill:none;stroke:#FFFFFF;stroke-miterlimit:10;}
	.st62{fill:none;stroke:#0899CD;stroke-miterlimit:10;}
	.st63{fill:none;stroke:#8A8A8A;stroke-miterlimit:10;}
	.st64{fill:#FFFFFE;}
	.st65{fill:#8AAFCE;}
	.st66{clip-path:url(#SVGID_92_);}
	.st67{clip-path:url(#SVGID_93_);fill:none;}
	.st68{clip-path:url(#SVGID_96_);}
	.st69{clip-path:url(#SVGID_97_);}
	.st70{clip-path:url(#SVGID_100_);}
	.st71{clip-path:url(#SVGID_101_);}
	.st72{clip-path:url(#SVGID_104_);}
	.st73{clip-path:url(#SVGID_105_);}
	.st74{clip-path:url(#SVGID_108_);}
	.st75{clip-path:url(#SVGID_109_);}
	.st76{clip-path:url(#SVGID_112_);}
	.st77{clip-path:url(#SVGID_113_);fill:#FFFFFF;}
	.st78{clip-path:url(#SVGID_116_);}
	.st79{clip-path:url(#SVGID_117_);fill:#FFFFFF;}
	.st80{clip-path:url(#SVGID_120_);}
	.st81{clip-path:url(#SVGID_121_);fill:#FFFFFF;}
	.st82{clip-path:url(#SVGID_124_);}
	.st83{clip-path:url(#SVGID_125_);fill:#FFFFFF;}
	.st84{clip-path:url(#SVGID_128_);}
	.st85{clip-path:url(#SVGID_129_);fill:#FFFFFF;}
	.st86{clip-path:url(#SVGID_132_);}
	.st87{clip-path:url(#SVGID_133_);fill:#FFFFFF;}
	.st88{clip-path:url(#SVGID_136_);}
	.st89{clip-path:url(#SVGID_137_);fill:#FFFFFF;}
	.st90{clip-path:url(#SVGID_140_);}
	.st91{clip-path:url(#SVGID_141_);fill:#FFFFFF;}
	.st92{clip-path:url(#SVGID_144_);}
	.st93{clip-path:url(#SVGID_145_);fill:#FFFFFF;}
	.st94{clip-path:url(#SVGID_148_);}
	.st95{clip-path:url(#SVGID_149_);fill:#FFFFFF;}
	.st96{clip-path:url(#SVGID_152_);}
	.st97{clip-path:url(#SVGID_153_);fill:#FFFFFF;}
	.st98{clip-path:url(#SVGID_156_);}
	.st99{clip-path:url(#SVGID_157_);fill:#FFFFFF;}
	.st100{clip-path:url(#SVGID_160_);}
	.st101{clip-path:url(#SVGID_161_);fill:#FFFFFF;}
	.st102{clip-path:url(#SVGID_164_);}
	.st103{clip-path:url(#SVGID_165_);fill:#FFFFFF;}
	.st104{clip-path:url(#SVGID_168_);}
	.st105{clip-path:url(#SVGID_169_);fill:#FFFFFF;}
	.st106{clip-path:url(#SVGID_172_);}
	.st107{clip-path:url(#SVGID_173_);fill:#FFFFFF;}
	.st108{clip-path:url(#SVGID_176_);}
	.st109{clip-path:url(#SVGID_177_);fill:#FFFFFF;}
	.st110{fill:url(#SVGID_178_);}
	.st111{fill:url(#SVGID_179_);}
	.st112{clip-path:url(#SVGID_182_);}
	.st113{clip-path:url(#SVGID_183_);fill:none;}
	.st114{clip-path:url(#SVGID_186_);}
	.st115{clip-path:url(#SVGID_187_);}
	.st116{clip-path:url(#SVGID_190_);}
	.st117{clip-path:url(#SVGID_191_);}
	.st118{clip-path:url(#SVGID_194_);}
	.st119{clip-path:url(#SVGID_195_);}
	.st120{clip-path:url(#SVGID_198_);}
	.st121{clip-path:url(#SVGID_199_);}
	.st122{clip-path:url(#SVGID_202_);}
	.st123{clip-path:url(#SVGID_203_);fill:#FFFFFF;}
	.st124{clip-path:url(#SVGID_206_);}
	.st125{clip-path:url(#SVGID_207_);fill:#FFFFFF;}
	.st126{clip-path:url(#SVGID_210_);}
	.st127{clip-path:url(#SVGID_211_);fill:#FFFFFF;}
	.st128{clip-path:url(#SVGID_214_);}
	.st129{clip-path:url(#SVGID_215_);fill:#FFFFFF;}
	.st130{clip-path:url(#SVGID_218_);}
	.st131{clip-path:url(#SVGID_219_);fill:#FFFFFF;}
	.st132{clip-path:url(#SVGID_222_);}
	.st133{clip-path:url(#SVGID_223_);fill:#FFFFFF;}
	.st134{clip-path:url(#SVGID_226_);}
	.st135{clip-path:url(#SVGID_227_);fill:#FFFFFF;}
	.st136{clip-path:url(#SVGID_230_);}
	.st137{clip-path:url(#SVGID_231_);fill:#FFFFFF;}
	.st138{clip-path:url(#SVGID_234_);}
	.st139{clip-path:url(#SVGID_235_);fill:#FFFFFF;}
	.st140{clip-path:url(#SVGID_238_);}
	.st141{clip-path:url(#SVGID_239_);fill:#FFFFFF;}
	.st142{clip-path:url(#SVGID_242_);}
	.st143{clip-path:url(#SVGID_243_);fill:#FFFFFF;}
	.st144{clip-path:url(#SVGID_246_);}
	.st145{clip-path:url(#SVGID_247_);fill:#FFFFFF;}
	.st146{clip-path:url(#SVGID_250_);}
	.st147{clip-path:url(#SVGID_251_);fill:#FFFFFF;}
	.st148{clip-path:url(#SVGID_254_);}
	.st149{clip-path:url(#SVGID_255_);fill:#FFFFFF;}
	.st150{clip-path:url(#SVGID_258_);}
	.st151{clip-path:url(#SVGID_259_);fill:#FFFFFF;}
	.st152{clip-path:url(#SVGID_262_);}
	.st153{clip-path:url(#SVGID_263_);fill:#FFFFFF;}
	.st154{clip-path:url(#SVGID_266_);}
	.st155{clip-path:url(#SVGID_267_);fill:#FFFFFF;}
	.st156{fill:url(#SVGID_268_);}
	.st157{clip-path:url(#SVGID_271_);}
	.st158{clip-path:url(#SVGID_272_);fill:none;}
	.st159{clip-path:url(#SVGID_275_);}
	.st160{clip-path:url(#SVGID_276_);}
	.st161{clip-path:url(#SVGID_279_);}
	.st162{clip-path:url(#SVGID_280_);}
	.st163{clip-path:url(#SVGID_283_);}
	.st164{clip-path:url(#SVGID_284_);}
	.st165{clip-path:url(#SVGID_287_);}
	.st166{clip-path:url(#SVGID_288_);}
	.st167{clip-path:url(#SVGID_291_);}
	.st168{clip-path:url(#SVGID_292_);fill:#FFFFFF;}
	.st169{clip-path:url(#SVGID_295_);}
	.st170{clip-path:url(#SVGID_296_);fill:#FFFFFF;}
	.st171{clip-path:url(#SVGID_299_);}
	.st172{clip-path:url(#SVGID_300_);fill:#FFFFFF;}
	.st173{clip-path:url(#SVGID_303_);}
	.st174{clip-path:url(#SVGID_304_);fill:#FFFFFF;}
	.st175{clip-path:url(#SVGID_307_);}
	.st176{clip-path:url(#SVGID_308_);fill:#FFFFFF;}
	.st177{clip-path:url(#SVGID_311_);}
	.st178{clip-path:url(#SVGID_312_);fill:#FFFFFF;}
	.st179{clip-path:url(#SVGID_315_);}
	.st180{clip-path:url(#SVGID_316_);fill:#FFFFFF;}
	.st181{clip-path:url(#SVGID_319_);}
	.st182{clip-path:url(#SVGID_320_);fill:#FFFFFF;}
	.st183{clip-path:url(#SVGID_323_);}
	.st184{clip-path:url(#SVGID_324_);fill:#FFFFFF;}
	.st185{clip-path:url(#SVGID_327_);}
	.st186{clip-path:url(#SVGID_328_);fill:#FFFFFF;}
	.st187{clip-path:url(#SVGID_331_);}
	.st188{clip-path:url(#SVGID_332_);fill:#FFFFFF;}
	.st189{clip-path:url(#SVGID_335_);}
	.st190{clip-path:url(#SVGID_336_);fill:#FFFFFF;}
	.st191{clip-path:url(#SVGID_339_);}
	.st192{clip-path:url(#SVGID_340_);fill:#FFFFFF;}
	.st193{clip-path:url(#SVGID_343_);}
	.st194{clip-path:url(#SVGID_344_);fill:#FFFFFF;}
	.st195{clip-path:url(#SVGID_347_);}
	.st196{clip-path:url(#SVGID_348_);fill:#FFFFFF;}
	.st197{clip-path:url(#SVGID_351_);}
	.st198{clip-path:url(#SVGID_352_);fill:#FFFFFF;}
	.st199{clip-path:url(#SVGID_355_);}
	.st200{clip-path:url(#SVGID_356_);fill:#FFFFFF;}
	.st201{fill:url(#SVGID_357_);}
	.st202{clip-path:url(#SVGID_360_);}
	.st203{clip-path:url(#SVGID_361_);fill:none;}
	.st204{clip-path:url(#SVGID_364_);}
	.st205{clip-path:url(#SVGID_365_);}
	.st206{clip-path:url(#SVGID_368_);}
	.st207{clip-path:url(#SVGID_369_);}
	.st208{clip-path:url(#SVGID_372_);}
	.st209{clip-path:url(#SVGID_373_);}
	.st210{clip-path:url(#SVGID_376_);}
	.st211{clip-path:url(#SVGID_377_);}
	.st212{clip-path:url(#SVGID_380_);}
	.st213{clip-path:url(#SVGID_381_);fill:#FFFFFF;}
	.st214{clip-path:url(#SVGID_384_);}
	.st215{clip-path:url(#SVGID_385_);fill:#FFFFFF;}
	.st216{clip-path:url(#SVGID_388_);}
	.st217{clip-path:url(#SVGID_389_);fill:#FFFFFF;}
	.st218{clip-path:url(#SVGID_392_);}
	.st219{clip-path:url(#SVGID_393_);fill:#FFFFFF;}
	.st220{clip-path:url(#SVGID_396_);}
	.st221{clip-path:url(#SVGID_397_);fill:#FFFFFF;}
	.st222{clip-path:url(#SVGID_400_);}
	.st223{clip-path:url(#SVGID_401_);fill:#FFFFFF;}
	.st224{clip-path:url(#SVGID_404_);}
	.st225{clip-path:url(#SVGID_405_);fill:#FFFFFF;}
	.st226{clip-path:url(#SVGID_408_);}
	.st227{clip-path:url(#SVGID_409_);fill:#FFFFFF;}
	.st228{clip-path:url(#SVGID_412_);}
	.st229{clip-path:url(#SVGID_413_);fill:#FFFFFF;}
	.st230{clip-path:url(#SVGID_416_);}
	.st231{clip-path:url(#SVGID_417_);fill:#FFFFFF;}
	.st232{clip-path:url(#SVGID_420_);}
	.st233{clip-path:url(#SVGID_421_);fill:#FFFFFF;}
	.st234{clip-path:url(#SVGID_424_);}
	.st235{clip-path:url(#SVGID_425_);fill:#FFFFFF;}
	.st236{clip-path:url(#SVGID_428_);}
	.st237{clip-path:url(#SVGID_429_);fill:#FFFFFF;}
	.st238{clip-path:url(#SVGID_432_);}
	.st239{clip-path:url(#SVGID_433_);fill:#FFFFFF;}
	.st240{clip-path:url(#SVGID_436_);}
	.st241{clip-path:url(#SVGID_437_);fill:#FFFFFF;}
	.st242{clip-path:url(#SVGID_440_);}
	.st243{clip-path:url(#SVGID_441_);fill:#FFFFFF;}
	.st244{clip-path:url(#SVGID_444_);}
	.st245{clip-path:url(#SVGID_445_);fill:#FFFFFF;}
</style>
<g class="st1">
	<g>
		<g>
			<g>
				<g>
					<g>
						<defs>
							<polygon id="SVGID_90_" points="870.58,26.61 871.58,26.61 870.58,27.61 							"/>
						</defs>
						<defs>
							<polygon id="SVGID_91_" points="868.58,24.61 867.58,24.61 868.58,23.61 							"/>
						</defs>
						<clipPath id="SVGID_1_">
							<use xlink:href="#SVGID_90_"  style="overflow:visible;"/>
						</clipPath>
						<clipPath id="SVGID_4_" style="clip-path:url(#SVGID_1_);">
							<use xlink:href="#SVGID_91_"  style="overflow:visible;"/>
						</clipPath>
						<rect x="1107.92" y="106.03" style="clip-path:url(#SVGID_4_);fill:none;" width="630.35" height="386.83"/>
					</g>
				</g>
			</g>
		</g>
	</g>
	<path class="st4" d="M1088.39,553.72h-6.74c-0.51,0-0.92-0.41-0.92-0.92s0.41-0.92,0.92-0.92h6.74c0.51,0,0.92,0.41,0.92,0.92
		S1088.9,553.72,1088.39,553.72"/>
	<path class="st4" d="M1085.02,557.09c-0.51,0-0.92-0.41-0.92-0.92v-6.74c0-0.51,0.41-0.92,0.92-0.92c0.51,0,0.92,0.41,0.92,0.92
		v6.74C1085.94,556.67,1085.53,557.09,1085.02,557.09"/>
	<path class="st5" d="M1209.94,512.09c-63.6,0-115.35-51.75-115.35-115.36c0-55.76,39.66-103,93.58-113.27
		c3.84-97.39,84.29-175.43,182.62-175.43c87.24,0,162.45,62.51,179.22,147.08c7.98-1.55,15.98-2.33,23.9-2.33
		c70.39,0,127.67,57.28,127.67,127.68c0,1.71-0.04,3.46-0.12,5.26c29.61,5.65,51.54,31.41,51.54,62.56
		c0,33.99-26.71,61.86-60.24,63.69l-0.02,0.11L1209.94,512.09L1209.94,512.09z"/>
	<path class="st6" d="M1221.52,436.58c-36.36,0-65.96-29.59-65.96-65.96c0-31.88,22.68-58.89,53.51-64.76
		c2.2-55.69,48.19-100.31,104.42-100.31c49.88,0,92.89,35.74,102.48,84.1c4.56-0.89,9.14-1.33,13.66-1.33c40.25,0,73,32.75,73,73.01
		c0,0.98-0.02,1.98-0.07,3.01c16.93,3.23,29.47,17.96,29.47,35.77c0,19.44-15.27,35.37-34.45,36.42l-0.01,0.06L1221.52,436.58
		L1221.52,436.58z"/>
	<g class="st7">
		<g>
			<g>
				<g>
					<g>
						<g>
							<defs>
								<polygon id="SVGID_94_" points="870.58,26.61 871.58,26.61 870.58,27.61 								"/>
							</defs>
							<defs>
								<polygon id="SVGID_95_" points="868.58,24.61 867.58,24.61 868.58,23.61 								"/>
							</defs>
							<clipPath id="SVGID_5_">
								<use xlink:href="#SVGID_94_"  style="overflow:visible;"/>
							</clipPath>
							<clipPath id="SVGID_8_" style="clip-path:url(#SVGID_5_);">
								<use xlink:href="#SVGID_95_"  style="overflow:visible;"/>
							</clipPath>
							<path class="st8" d="M1189.06,90.63c0.68-27.71,23.33-49.97,51.2-49.97c16.17,0,30.57,7.49,39.96,19.19
								c3.8-7.05,11.25-11.84,19.82-11.84c10.58,0,19.44,7.29,21.85,17.13c3.35-1.36,7.01-2.12,10.84-2.12
								c5.84,0,11.27,1.74,15.81,4.73c6.51-6.49,15.49-10.5,25.41-10.5c15.18,0,28.16,9.4,33.45,22.69
								c3.17-3.35,7.66-5.44,12.64-5.44c9.19,0,16.7,7.12,17.35,16.14L1189.06,90.63L1189.06,90.63z"/>
						</g>
					</g>
				</g>
			</g>
		</g>
	</g>
	<g class="st7">
		<g>
			<g>
				<g>
					<g>
						<g>
							<defs>
								<polygon id="SVGID_98_" points="870.58,26.61 871.58,26.61 870.58,27.61 								"/>
							</defs>
							<defs>
								<polygon id="SVGID_99_" points="868.58,24.61 867.58,24.61 868.58,23.61 								"/>
							</defs>
							<clipPath id="SVGID_9_">
								<use xlink:href="#SVGID_98_"  style="overflow:visible;"/>
							</clipPath>
							<clipPath id="SVGID_12_" class="st9">
								<use xlink:href="#SVGID_99_"  style="overflow:visible;"/>
							</clipPath>
							<path class="st10" d="M1550.85,342.69c0.65-26.68,22.46-48.11,49.3-48.11c15.56,0,29.44,7.22,38.48,18.48
								c3.66-6.79,10.83-11.41,19.09-11.41c10.19,0,18.72,7.03,21.04,16.49c3.23-1.31,6.75-2.04,10.44-2.04
								c5.62,0,10.85,1.68,15.22,4.55c6.27-6.25,14.92-10.11,24.47-10.11c14.62,0,27.11,9.05,32.22,21.85
								c3.05-3.23,7.37-5.24,12.17-5.24c8.84,0,16.08,6.85,16.7,15.54L1550.85,342.69L1550.85,342.69z"/>
						</g>
					</g>
				</g>
			</g>
		</g>
	</g>
	<g class="st7">
		<g>
			<g>
				<g>
					<g>
						<g>
							<defs>
								<polygon id="SVGID_102_" points="870.58,26.61 871.58,26.61 870.58,27.61 								"/>
							</defs>
							<defs>
								<polygon id="SVGID_103_" points="868.58,24.61 867.58,24.61 868.58,23.61 								"/>
							</defs>
							<clipPath id="SVGID_13_">
								<use xlink:href="#SVGID_102_"  style="overflow:visible;"/>
							</clipPath>
							<clipPath id="SVGID_16_" class="st11">
								<use xlink:href="#SVGID_103_"  style="overflow:visible;"/>
							</clipPath>
							<path class="st12" d="M1054.1,378.74c-0.44-18.11-15.25-32.66-33.47-32.66c-10.57,0-19.99,4.9-26.12,12.55
								c-2.48-4.61-7.35-7.74-12.96-7.74c-6.91,0-12.71,4.77-14.28,11.2c-2.19-0.89-4.58-1.39-7.09-1.39
								c-3.82,0-7.37,1.14-10.33,3.09c-4.26-4.24-10.13-6.86-16.61-6.86c-9.92,0-18.41,6.14-21.87,14.83
								c-2.07-2.19-5.01-3.56-8.26-3.56c-6,0-10.92,4.65-11.34,10.55L1054.1,378.74L1054.1,378.74z"/>
						</g>
					</g>
				</g>
			</g>
		</g>
	</g>
	<g class="st7">
		<g>
			<g>
				<g>
					<g>
						<g>
							<defs>
								<polygon id="SVGID_106_" points="870.58,26.61 871.58,26.61 870.58,27.61 								"/>
							</defs>
							<defs>
								<polygon id="SVGID_107_" points="868.58,24.61 867.58,24.61 868.58,23.61 								"/>
							</defs>
							<clipPath id="SVGID_17_">
								<use xlink:href="#SVGID_106_"  style="overflow:visible;"/>
							</clipPath>
							<clipPath id="SVGID_20_" class="st13">
								<use xlink:href="#SVGID_107_"  style="overflow:visible;"/>
							</clipPath>
							<path class="st14" d="M1122.89,558.2c0.39-15.85,13.35-28.59,29.29-28.59c9.25,0,17.49,4.29,22.86,10.98
								c2.17-4.03,6.44-6.77,11.34-6.77c6.05,0,11.12,4.17,12.5,9.8c1.91-0.78,4.01-1.21,6.2-1.21c3.34,0,6.45,0.99,9.04,2.7
								c3.73-3.71,8.86-6.01,14.54-6.01c8.69,0,16.11,5.38,19.14,12.98c1.81-1.92,4.38-3.11,7.23-3.11c5.25,0,9.55,4.07,9.92,9.23
								L1122.89,558.2L1122.89,558.2z"/>
						</g>
					</g>
				</g>
			</g>
		</g>
	</g>
	<path class="st6" d="M1771.73,561.13c0,1.15-0.93,2.07-2.07,2.07c-1.15,0-2.07-0.93-2.07-2.07c0-1.15,0.93-2.07,2.07-2.07
		C1770.8,559.06,1771.73,559.99,1771.73,561.13"/>
	<path class="st16" d="M605.2,261.31c0,1.23-1,2.23-2.23,2.23c-1.23,0-2.23-1-2.23-2.23s1-2.23,2.23-2.23
		C604.2,259.08,605.2,260.08,605.2,261.31"/>
	<path class="st6" d="M516.92,210.94c0,2.21-1.79,4-4,4c-2.21,0-4-1.79-4-4s1.79-4,4-4C515.12,206.94,516.92,208.73,516.92,210.94"
		/>
	<path class="st4" d="M953.51,422.02h-7.33c-0.55,0-1-0.45-1-1s0.45-1,1-1h7.33c0.55,0,1,0.45,1,1S954.06,422.02,953.51,422.02"/>
	<path class="st4" d="M949.84,425.68c-0.55,0-1-0.45-1-1v-7.33c0-0.55,0.45-1,1-1c0.55,0,1,0.45,1,1v7.33
		C950.84,425.24,950.39,425.68,949.84,425.68"/>
	<path class="st4" d="M584.63,241.41h-7.33c-0.55,0-1-0.45-1-1s0.45-1,1-1h7.33c0.55,0,1,0.45,1,1
		C585.63,240.97,585.19,241.41,584.63,241.41"/>
	<path class="st4" d="M580.97,245.08c-0.55,0-1-0.45-1-1v-7.33c0-0.55,0.45-1,1-1c0.55,0,1,0.45,1,1v7.33
		C581.97,244.63,581.52,245.08,580.97,245.08"/>
	<line class="st18" x1="1674.75" y1="196.05" x2="1694.81" y2="196.05"/>
	<line class="st18" x1="1569.19" y1="196.05" x2="1665.8" y2="196.05"/>
	<line class="st18" x1="1569.19" y1="236.17" x2="1694.82" y2="236.17"/>
	<line class="st18" x1="1569.19" y1="222.8" x2="1602.69" y2="222.8"/>
	<line class="st18" x1="1613.47" y1="222.8" x2="1694.39" y2="222.8"/>
	<polyline class="st18" points="1560.45,202.36 1556.81,196.12 1560.45,189.88 	"/>
	<line class="st18" x1="1569.19" y1="209.42" x2="1636.11" y2="209.42"/>
	<line class="st18" x1="1648.03" y1="209.42" x2="1694.6" y2="209.42"/>
	<polyline class="st18" points="1704.15,229.72 1707.79,235.96 1704.15,242.2 	"/>
	<line class="st18" x1="503.87" y1="193.57" x2="560.44" y2="193.57"/>
	<line class="st18" x1="503.87" y1="229.8" x2="560.71" y2="229.8"/>
	<line class="st18" x1="503.87" y1="217.72" x2="560.44" y2="217.72"/>
	<polyline class="st18" points="496.24,199.27 493.06,193.63 496.24,188 	"/>
	<line class="st18" x1="503.87" y1="205.64" x2="538.68" y2="205.64"/>
	<line class="st18" x1="503.87" y1="241.92" x2="551.69" y2="241.92"/>
	<line class="st18" x1="503.87" y1="278.16" x2="560.71" y2="278.16"/>
	<line class="st18" x1="503.87" y1="266.08" x2="560.16" y2="266.08"/>
	<line class="st18" x1="503.87" y1="254" x2="527.25" y2="254"/>
	<polyline class="st18" points="567.28,272.89 570.46,278.53 567.28,284.16 	"/>
	<line class="st18" x1="1564.31" y1="402.54" x2="1620.89" y2="402.54"/>
	<line class="st18" x1="1564.31" y1="438.78" x2="1621.16" y2="438.78"/>
	<line class="st18" x1="1564.31" y1="426.7" x2="1620.89" y2="426.7"/>
	<polyline class="st18" points="1556.69,408.25 1553.5,402.61 1556.69,396.97 	"/>
	<line class="st18" x1="1564.31" y1="414.62" x2="1599.12" y2="414.62"/>
	<polyline class="st18" points="1627.72,433.67 1630.91,439.3 1627.72,444.94 	"/>
	<line class="st18" x1="1226.68" y1="596.66" x2="1253.6" y2="596.66"/>
	<line class="st18" x1="1084.93" y1="596.66" x2="1214.65" y2="596.66"/>
	<line class="st18" x1="1084.93" y1="650.54" x2="1253.62" y2="650.54"/>
	<line class="st18" x1="1084.93" y1="632.58" x2="1129.91" y2="632.58"/>
	<line class="st18" x1="1144.39" y1="632.58" x2="1253.04" y2="632.58"/>
	<polyline class="st18" points="1073.2,605.14 1068.31,596.76 1073.2,588.38 	"/>
	<line class="st18" x1="1084.93" y1="614.62" x2="1174.79" y2="614.62"/>
	<line class="st18" x1="1190.8" y1="614.62" x2="1253.32" y2="614.62"/>
	<polyline class="st18" points="1266.14,641.88 1271.04,650.26 1266.14,658.64 	"/>
	<a xlink:href="https://docs.webmethods.io/index_files/product/index.html" >
		<g id="aris-d_1_" class="st19">
			<g>
				<g>
					<g>
						<g>
							<g>
								<defs>
									<polygon id="SVGID_110_" points="870.58,26.61 871.58,26.61 870.58,27.61 									"/>
								</defs>
								<defs>
									<polygon id="SVGID_111_" points="868.58,24.61 867.58,24.61 868.58,23.61 									"/>
								</defs>
								<clipPath id="SVGID_21_">
									<use xlink:href="#SVGID_110_"  style="overflow:visible;"/>
								</clipPath>
								<clipPath id="SVGID_24_" class="st15">
									<use xlink:href="#SVGID_111_"  style="overflow:visible;"/>
								</clipPath>
								<path style="clip-path:url(#SVGID_24_);fill:#FFFFFF;" d="M1304.99,451.41l5.55,12.75h-3.17l-1.1-2.7h-4.95l-1.06,2.7h-3.1
									l5.51-12.75H1304.99z M1302.19,459.08h3.11l-1.56-3.96L1302.19,459.08z"/>
							</g>
						</g>
					</g>
				</g>
				<g>
					<g>
						<g>
							<g>
								<defs>
									<polygon id="SVGID_114_" points="870.58,26.61 871.58,26.61 870.58,27.61 									"/>
								</defs>
								<defs>
									<polygon id="SVGID_115_" points="868.58,24.61 867.58,24.61 868.58,23.61 									"/>
								</defs>
								<clipPath id="SVGID_25_">
									<use xlink:href="#SVGID_114_"  style="overflow:visible;"/>
								</clipPath>
								<clipPath id="SVGID_28_" style="clip-path:url(#SVGID_25_);">
									<use xlink:href="#SVGID_115_"  style="overflow:visible;"/>
								</clipPath>
								<path style="clip-path:url(#SVGID_28_);fill:#FFFFFF;" d="M1316.31,451.41c2.31,0,4.72,0.77,4.72,3.87
									c0,1.87-1.03,3.17-2.76,3.49l3.24,5.39h-3.37l-2.66-5.1h-1.39v5.1h-2.81v-12.75H1316.31L1316.31,451.41z M1315.84,456.68
									c1.3,0,2.27-0.22,2.27-1.42c0-1.05-0.78-1.48-2.11-1.48h-1.91v2.9L1315.84,456.68L1315.84,456.68z"/>
							</g>
						</g>
					</g>
				</g>
				<g>
					<g>
						<g>
							<g>
								<defs>
									<polygon id="SVGID_118_" points="870.58,26.61 871.58,26.61 870.58,27.61 									"/>
								</defs>
								<defs>
									<polygon id="SVGID_119_" points="868.58,24.61 867.58,24.61 868.58,23.61 									"/>
								</defs>
								<clipPath id="SVGID_29_">
									<use xlink:href="#SVGID_118_"  style="overflow:visible;"/>
								</clipPath>
								<clipPath id="SVGID_32_" style="clip-path:url(#SVGID_29_);">
									<use xlink:href="#SVGID_119_"  style="overflow:visible;"/>
								</clipPath>
								<rect x="1322.44" y="451.41" style="clip-path:url(#SVGID_32_);fill:#FFFFFF;" width="2.81" height="12.75"/>
							</g>
						</g>
					</g>
				</g>
				<g>
					<g>
						<g>
							<g>
								<defs>
									<polygon id="SVGID_122_" points="870.58,26.61 871.58,26.61 870.58,27.61 									"/>
								</defs>
								<defs>
									<polygon id="SVGID_123_" points="868.58,24.61 867.58,24.61 868.58,23.61 									"/>
								</defs>
								<clipPath id="SVGID_33_">
									<use xlink:href="#SVGID_122_"  style="overflow:visible;"/>
								</clipPath>
								<clipPath id="SVGID_36_" style="clip-path:url(#SVGID_33_);">
									<use xlink:href="#SVGID_123_"  style="overflow:visible;"/>
								</clipPath>
								<path style="clip-path:url(#SVGID_36_);fill:#FFFFFF;" d="M1335.48,452.42l-1.93,2.1c-0.45-0.58-1.35-0.85-2.03-0.85
									c-0.77,0-1.89,0.36-1.89,1.31c0,1.11,1.35,1.35,2.76,1.78c1.53,0.47,3.12,1.2,3.12,3.51c0,2.9-2.32,4.19-4.92,4.19
									c-1.64,0-3.08-0.47-4.29-1.6l2-2.2c0.59,0.76,1.49,1.21,2.45,1.21c0.77,0,1.94-0.35,1.94-1.33c0-1.12-1.35-1.4-2.77-1.87
									c-1.57-0.5-3.21-1.23-3.21-3.46c0-2.72,2.38-4.14,4.86-4.14C1332.99,451.08,1334.38,451.46,1335.48,452.42"/>
							</g>
						</g>
					</g>
				</g>
			</g>
		</g>
	</a>
	<g class="st19">
		<a xlink:href="https://docs.webmethods.io/index_files/product/index.html" >
			<g id="IoT-c_1_">
				<g>
					<g>
						<g>
							<g>
								<defs>
									<polygon id="SVGID_126_" points="870.58,26.61 871.58,26.61 870.58,27.61 									"/>
								</defs>
								<defs>
									<polygon id="SVGID_127_" points="868.58,24.61 867.58,24.61 868.58,23.61 									"/>
								</defs>
								<clipPath id="SVGID_37_">
									<use xlink:href="#SVGID_126_"  style="overflow:visible;"/>
								</clipPath>
								<clipPath id="SVGID_40_" style="clip-path:url(#SVGID_37_);">
									<use xlink:href="#SVGID_127_"  style="overflow:visible;"/>
								</clipPath>
								<path style="clip-path:url(#SVGID_40_);fill:#FFFFFF;" d="M992.95,466.17l-2.16,1.77c-0.61-0.74-1.46-1.05-2.41-1.05
									c-2,0-3.69,1.6-3.69,4.1c0,2.12,1.37,4.11,3.6,4.11c1.1,0,2.02-0.45,2.63-1.37l2.34,1.75c-1.01,1.48-2.86,2.21-4.61,2.21
									c-4,0-6.88-2.63-6.88-6.7c0-4.03,2.86-6.7,6.88-6.7C990.32,464.3,992,464.94,992.95,466.17"/>
							</g>
						</g>
					</g>
				</g>
				<g>
					<g>
						<g>
							<g>
								<defs>
									<polygon id="SVGID_130_" points="870.58,26.61 871.58,26.61 870.58,27.61 									"/>
								</defs>
								<defs>
									<polygon id="SVGID_131_" points="868.58,24.61 867.58,24.61 868.58,23.61 									"/>
								</defs>
								<clipPath id="SVGID_41_">
									<use xlink:href="#SVGID_130_"  style="overflow:visible;"/>
								</clipPath>
								<clipPath id="SVGID_44_" style="clip-path:url(#SVGID_41_);">
									<use xlink:href="#SVGID_131_"  style="overflow:visible;"/>
								</clipPath>
								<path style="clip-path:url(#SVGID_44_);fill:#FFFFFF;" d="M997.07,464.62v7.76c0,1.51,1.08,2.72,2.58,2.72
									c1.33,0,2.56-1.06,2.56-2.72v-7.76h2.81v7.89c0,2.77-1.69,5.19-5.36,5.19c-3.67,0-5.38-2.41-5.38-5.19v-7.89H997.07z"/>
							</g>
						</g>
					</g>
				</g>
				<g>
					<g>
						<g>
							<g>
								<defs>
									<polygon id="SVGID_134_" points="870.58,26.61 871.58,26.61 870.58,27.61 									"/>
								</defs>
								<defs>
									<polygon id="SVGID_135_" points="868.58,24.61 867.58,24.61 868.58,23.61 									"/>
								</defs>
								<clipPath id="SVGID_45_">
									<use xlink:href="#SVGID_134_"  style="overflow:visible;"/>
								</clipPath>
								<clipPath id="SVGID_48_" style="clip-path:url(#SVGID_45_);">
									<use xlink:href="#SVGID_135_"  style="overflow:visible;"/>
								</clipPath>
								<polygon style="clip-path:url(#SVGID_48_);fill:#FFFFFF;" points="1011.33,464.62 1014.26,472.94 1014.3,472.94 
									1017.25,464.62 1021.48,464.62 1021.48,477.37 1018.67,477.37 1018.67,467.59 1018.64,467.59 1015.29,477.37 
									1013.14,477.37 1009.92,467.59 1009.89,467.59 1009.89,477.37 1007.08,477.37 1007.08,464.62 								"/>
							</g>
						</g>
					</g>
				</g>
				<g>
					<g>
						<g>
							<g>
								<defs>
									<polygon id="SVGID_138_" points="870.58,26.61 871.58,26.61 870.58,27.61 									"/>
								</defs>
								<defs>
									<polygon id="SVGID_139_" points="868.58,24.61 867.58,24.61 868.58,23.61 									"/>
								</defs>
								<clipPath id="SVGID_49_">
									<use xlink:href="#SVGID_138_"  style="overflow:visible;"/>
								</clipPath>
								<clipPath id="SVGID_52_" style="clip-path:url(#SVGID_49_);">
									<use xlink:href="#SVGID_139_"  style="overflow:visible;"/>
								</clipPath>
								<path style="clip-path:url(#SVGID_52_);fill:#FFFFFF;" d="M1026.36,464.62v7.76c0,1.51,1.08,2.72,2.57,2.72
									c1.33,0,2.56-1.06,2.56-2.72v-7.76h2.81v7.89c0,2.77-1.69,5.19-5.36,5.19s-5.38-2.41-5.38-5.19v-7.89H1026.36z"/>
							</g>
						</g>
					</g>
				</g>
				<g>
					<g>
						<g>
							<g>
								<defs>
									<polygon id="SVGID_142_" points="870.58,26.61 871.58,26.61 870.58,27.61 									"/>
								</defs>
								<defs>
									<polygon id="SVGID_143_" points="868.58,24.61 867.58,24.61 868.58,23.61 									"/>
								</defs>
								<clipPath id="SVGID_53_">
									<use xlink:href="#SVGID_142_"  style="overflow:visible;"/>
								</clipPath>
								<clipPath id="SVGID_56_" style="clip-path:url(#SVGID_53_);">
									<use xlink:href="#SVGID_143_"  style="overflow:visible;"/>
								</clipPath>
								<polygon style="clip-path:url(#SVGID_56_);fill:#FFFFFF;" points="1039.28,464.62 1039.28,474.77 1044.48,474.77 
									1044.48,477.37 1036.47,477.37 1036.47,464.62 								"/>
							</g>
						</g>
					</g>
				</g>
				<g>
					<g>
						<g>
							<g>
								<defs>
									<polygon id="SVGID_146_" points="870.58,26.61 871.58,26.61 870.58,27.61 									"/>
								</defs>
								<defs>
									<polygon id="SVGID_147_" points="868.58,24.61 867.58,24.61 868.58,23.61 									"/>
								</defs>
								<clipPath id="SVGID_57_">
									<use xlink:href="#SVGID_146_"  style="overflow:visible;"/>
								</clipPath>
								<clipPath id="SVGID_60_" style="clip-path:url(#SVGID_57_);">
									<use xlink:href="#SVGID_147_"  style="overflow:visible;"/>
								</clipPath>
								<path style="clip-path:url(#SVGID_60_);fill:#FFFFFF;" d="M1058.58,470.99c0,4.05-2.88,6.7-6.88,6.7
									c-4.02,0-6.88-2.63-6.88-6.7s2.86-6.7,6.88-6.7C1055.75,464.3,1058.58,466.94,1058.58,470.99 M1051.7,475.1
									c2.38,0,3.96-1.71,3.96-4.1c0-2.4-1.58-4.1-3.98-4.1c-2.36,0-3.94,1.69-3.94,4.1C1047.74,473.39,1049.31,475.1,1051.7,475.1
									"/>
							</g>
						</g>
					</g>
				</g>
				<g>
					<g>
						<g>
							<g>
								<defs>
									<polygon id="SVGID_150_" points="870.58,26.61 871.58,26.61 870.58,27.61 									"/>
								</defs>
								<defs>
									<polygon id="SVGID_151_" points="868.58,24.61 867.58,24.61 868.58,23.61 									"/>
								</defs>
								<clipPath id="SVGID_61_">
									<use xlink:href="#SVGID_150_"  style="overflow:visible;"/>
								</clipPath>
								<clipPath id="SVGID_64_" style="clip-path:url(#SVGID_61_);">
									<use xlink:href="#SVGID_151_"  style="overflow:visible;"/>
								</clipPath>
								<path style="clip-path:url(#SVGID_64_);fill:#FFFFFF;" d="M1070.46,466.17l-2.16,1.77c-0.61-0.74-1.46-1.05-2.41-1.05
									c-2,0-3.69,1.6-3.69,4.1c0,2.12,1.37,4.11,3.6,4.11c1.1,0,2.02-0.45,2.63-1.37l2.34,1.75c-1.01,1.48-2.86,2.21-4.61,2.21
									c-4,0-6.88-2.63-6.88-6.7c0-4.03,2.86-6.7,6.88-6.7C1067.83,464.3,1069.5,464.94,1070.46,466.17"/>
							</g>
						</g>
					</g>
				</g>
				<g>
					<g>
						<g>
							<g>
								<defs>
									<polygon id="SVGID_154_" points="870.58,26.61 871.58,26.61 870.58,27.61 									"/>
								</defs>
								<defs>
									<polygon id="SVGID_155_" points="868.58,24.61 867.58,24.61 868.58,23.61 									"/>
								</defs>
								<clipPath id="SVGID_65_">
									<use xlink:href="#SVGID_154_"  style="overflow:visible;"/>
								</clipPath>
								<clipPath id="SVGID_68_" style="clip-path:url(#SVGID_65_);">
									<use xlink:href="#SVGID_155_"  style="overflow:visible;"/>
								</clipPath>
								<rect x="1071.73" y="464.62" style="clip-path:url(#SVGID_68_);fill:#FFFFFF;" width="2.81" height="12.75"/>
							</g>
						</g>
					</g>
				</g>
				<g>
					<g>
						<g>
							<g>
								<defs>
									<polygon id="SVGID_158_" points="870.58,26.61 871.58,26.61 870.58,27.61 									"/>
								</defs>
								<defs>
									<polygon id="SVGID_159_" points="868.58,24.61 867.58,24.61 868.58,23.61 									"/>
								</defs>
								<clipPath id="SVGID_69_">
									<use xlink:href="#SVGID_158_"  style="overflow:visible;"/>
								</clipPath>
								<clipPath id="SVGID_72_" style="clip-path:url(#SVGID_69_);">
									<use xlink:href="#SVGID_159_"  style="overflow:visible;"/>
								</clipPath>
								<polygon style="clip-path:url(#SVGID_72_);fill:#FFFFFF;" points="1085.49,464.62 1085.49,467.1 1081.85,467.1 
									1081.85,477.37 1079.04,477.37 1079.04,467.1 1075.4,467.1 1075.4,464.62 								"/>
							</g>
						</g>
					</g>
				</g>
				<g>
					<g>
						<g>
							<g>
								<defs>
									<polygon id="SVGID_162_" points="870.58,26.61 871.58,26.61 870.58,27.61 									"/>
								</defs>
								<defs>
									<polygon id="SVGID_163_" points="868.58,24.61 867.58,24.61 868.58,23.61 									"/>
								</defs>
								<clipPath id="SVGID_73_">
									<use xlink:href="#SVGID_162_"  style="overflow:visible;"/>
								</clipPath>
								<clipPath id="SVGID_76_" style="clip-path:url(#SVGID_73_);">
									<use xlink:href="#SVGID_163_"  style="overflow:visible;"/>
								</clipPath>
								<polygon style="clip-path:url(#SVGID_76_);fill:#FFFFFF;" points="1088.22,464.62 1090.92,469.39 1093.78,464.62 
									1097.12,464.62 1092.33,471.93 1092.33,477.37 1089.52,477.37 1089.52,471.93 1084.73,464.62 								"/>
							</g>
						</g>
					</g>
				</g>
				<g>
					<g>
						<g>
							<g>
								<defs>
									<polygon id="SVGID_166_" points="870.58,26.61 871.58,26.61 870.58,27.61 									"/>
								</defs>
								<defs>
									<polygon id="SVGID_167_" points="868.58,24.61 867.58,24.61 868.58,23.61 									"/>
								</defs>
								<clipPath id="SVGID_77_">
									<use xlink:href="#SVGID_166_"  style="overflow:visible;"/>
								</clipPath>
								<clipPath id="SVGID_80_" style="clip-path:url(#SVGID_77_);">
									<use xlink:href="#SVGID_167_"  style="overflow:visible;"/>
								</clipPath>
								<rect x="1102.3" y="464.62" style="clip-path:url(#SVGID_80_);fill:#FFFFFF;" width="2.81" height="12.75"/>
							</g>
						</g>
					</g>
				</g>
				<g>
					<g>
						<g>
							<g>
								<defs>
									<polygon id="SVGID_170_" points="870.58,26.61 871.58,26.61 870.58,27.61 									"/>
								</defs>
								<defs>
									<polygon id="SVGID_171_" points="868.58,24.61 867.58,24.61 868.58,23.61 									"/>
								</defs>
								<clipPath id="SVGID_81_">
									<use xlink:href="#SVGID_170_"  style="overflow:visible;"/>
								</clipPath>
								<clipPath id="SVGID_84_" style="clip-path:url(#SVGID_81_);">
									<use xlink:href="#SVGID_171_"  style="overflow:visible;"/>
								</clipPath>
								<path style="clip-path:url(#SVGID_84_);fill:#FFFFFF;" d="M1116.19,472.99c0,2.77-2.18,4.59-4.86,4.59
									c-2.7,0-4.86-1.78-4.86-4.59c0-2.79,2.16-4.59,4.86-4.59C1114.03,468.4,1116.19,470.2,1116.19,472.99 M1111.33,475.21
									c1.31,0,2.16-0.86,2.16-2.22c0-1.37-0.85-2.21-2.18-2.21c-1.31,0-2.14,0.92-2.14,2.21
									C1109.17,474.31,1110,475.21,1111.33,475.21"/>
							</g>
						</g>
					</g>
				</g>
				<g>
					<g>
						<g>
							<g>
								<defs>
									<polygon id="SVGID_174_" points="870.58,26.61 871.58,26.61 870.58,27.61 									"/>
								</defs>
								<defs>
									<polygon id="SVGID_175_" points="868.58,24.61 867.58,24.61 868.58,23.61 									"/>
								</defs>
								<clipPath id="SVGID_85_">
									<use xlink:href="#SVGID_174_"  style="overflow:visible;"/>
								</clipPath>
								<clipPath id="SVGID_88_" style="clip-path:url(#SVGID_85_);">
									<use xlink:href="#SVGID_175_"  style="overflow:visible;"/>
								</clipPath>
								<polygon style="clip-path:url(#SVGID_88_);fill:#FFFFFF;" points="1126.51,464.62 1126.51,467.1 1122.87,467.1 
									1122.87,477.37 1120.06,477.37 1120.06,467.1 1116.42,467.1 1116.42,464.62 								"/>
							</g>
						</g>
					</g>
				</g>
			</g>
		</a>
	</g>
	<path class="st54" d="M1295.07,248.41v91.27h10.18c2.61,0,4.72,2.11,4.72,4.73v31"/>
	<path class="st54" d="M369.62,108.74h888.58c20.36,0,36.88,16.51,36.88,36.88v58.5"/>
	<polyline class="st54" points="1267.7,388.92 1354.63,388.92 1354.63,334.08 1294.97,334.08 	"/>
	<path class="st54" d="M1243.06,346.61h85.98c4.93,0,8.92,3.99,8.92,8.92v13.81"/>
	<path class="st54" d="M1442.05,327.91h-122.04c-2.19,0-3.96-1.77-3.96-3.96v-23.21"/>
	<path class="st54" d="M1737.97,195.41v87.91c0,24.63-19.97,44.6-44.6,44.6h-244.21"/>
	<polyline class="st54" points="1461.74,367.58 1341.97,367.58 1341.97,365.58 	"/>
	<path class="st54" d="M1646.97,547.49V391c0-12.94-10.48-23.42-23.42-23.42H1468.8"/>
	<path class="st54" d="M1358.97,378.43v-35.6h-22.99c-3.69,0-6.68-2.99-6.68-6.68v-27.82"/>
	<path class="st54" d="M1349.97,265.74v55.68h-24.54c-2.05,0-3.71,1.66-3.71,3.71v47.46"/>
	<path class="st55" d="M1502.47,405.39h-2.96c-0.35-0.98-0.88-1.87-1.55-2.64l1.48-2.55c-1.33-1.29-2.98-2.25-4.82-2.75l-1.48,2.57
		c-0.47-0.08-0.94-0.13-1.44-0.13c-0.53,0-1.06,0.05-1.56,0.15l-1.48-2.56c-1.83,0.52-3.47,1.5-4.79,2.8l1.48,2.56
		c-0.63,0.75-1.13,1.6-1.47,2.54h-2.96c-0.23,0.89-0.35,1.83-0.35,2.79c0,0.95,0.12,1.88,0.34,2.75h2.95
		c0.33,0.95,0.83,1.81,1.46,2.57l-1.48,2.56c1.31,1.31,2.95,2.29,4.78,2.81l1.48-2.55c0.51,0.1,1.04,0.15,1.58,0.15
		c0.5,0,0.98-0.05,1.46-0.13l1.48,2.56c1.84-0.5,3.48-1.47,4.81-2.76l-1.48-2.55c0.67-0.78,1.2-1.67,1.55-2.66h2.95
		c0.23-0.88,0.35-1.8,0.35-2.75C1502.82,407.22,1502.7,406.28,1502.47,405.39z M1491.7,410.82c-1.45,0-2.63-1.18-2.63-2.63
		c0-1.45,1.18-2.63,2.63-2.63c1.45,0,2.63,1.18,2.63,2.63C1494.34,409.64,1493.16,410.82,1491.7,410.82z"/>
	<path class="st55" d="M1333.74,228.65h-2.96c-0.35-0.98-0.88-1.87-1.55-2.64l1.47-2.55c-1.33-1.29-2.98-2.25-4.82-2.75l-1.48,2.57
		c-0.47-0.08-0.95-0.13-1.44-0.13c-0.53,0-1.05,0.05-1.56,0.15l-1.48-2.55c-1.83,0.52-3.47,1.5-4.79,2.8l1.48,2.56
		c-0.63,0.75-1.13,1.61-1.46,2.54h-2.96c-0.23,0.89-0.35,1.83-0.35,2.79c0,0.95,0.12,1.87,0.35,2.75h2.95
		c0.33,0.95,0.83,1.82,1.47,2.57l-1.48,2.56c1.31,1.31,2.95,2.29,4.78,2.81l1.48-2.55c0.52,0.1,1.04,0.15,1.58,0.15
		c0.5,0,0.99-0.05,1.46-0.13l1.48,2.56c1.84-0.5,3.49-1.47,4.81-2.76l-1.48-2.55c0.67-0.78,1.2-1.68,1.54-2.66h2.95
		c0.22-0.88,0.34-1.8,0.34-2.75C1334.09,230.48,1333.97,229.55,1333.74,228.65z M1322.97,234.08c-1.45,0-2.63-1.18-2.63-2.63
		c0-1.45,1.18-2.63,2.63-2.63c1.46,0,2.63,1.18,2.63,2.63C1325.6,232.9,1324.42,234.08,1322.97,234.08z"/>
	<a xlink:href="https://docs.webmethods.io/index_files/product/index.html" >
		<path id="wM-b2b_1_" class="st56" d="M360.62,108.62c0,27.66-22.42,50.08-50.08,50.08c-27.66,0-50.08-22.42-50.08-50.08
			s22.42-50.08,50.08-50.08C338.2,58.54,360.62,80.96,360.62,108.62"/>
		<circle id="wM-b2b-b_1_" class="st54" cx="310.54" cy="108.61" r="58.23"/>
	</a>
	<path class="st6" d="M1645.13,548.1c-0.15-0.96,0.5-1.86,1.46-2.02c0.96-0.15,1.86,0.5,2.02,1.46c0.15,0.96-0.5,1.86-1.46,2.02
		C1646.18,549.72,1645.28,549.06,1645.13,548.1"/>
	<circle class="st59" cx="1646.87" cy="547.82" r="1.76"/>
	<path class="st6" d="M1405.82,109.97c-0.15-0.96,0.5-1.86,1.46-2.02c0.96-0.15,1.86,0.5,2.02,1.46c0.15,0.96-0.5,1.86-1.46,2.02
		C1406.88,111.58,1405.97,110.93,1405.82,109.97"/>
	<circle class="st59" cx="1407.56" cy="109.69" r="1.76"/>
	<path class="st6" d="M1074.89,146.52c-0.15-0.96,0.5-1.86,1.46-2.02c0.96-0.15,1.86,0.5,2.02,1.46c0.15,0.96-0.5,1.86-1.46,2.02
		C1075.95,148.14,1075.05,147.48,1074.89,146.52"/>
	<circle class="st59" cx="375.63" cy="146.25" r="1.76"/>
	<path class="st6" d="M967.59,491.18c-0.15-0.96,0.5-1.86,1.46-2.02c0.96-0.15,1.86,0.5,2.02,1.47c0.15,0.96-0.5,1.86-1.46,2.02
		C968.64,492.79,967.74,492.14,967.59,491.18"/>
	<circle class="st59" cx="1359" cy="412" r="3.53"/>
	<circle class="st59" cx="1465.27" cy="367.56" r="3.53"/>
	<circle class="st59" cx="1445.55" cy="327.93" r="3.53"/>
	<circle class="st59" cx="1349.99" cy="262.32" r="3.53"/>
	<circle class="st59" cx="1295.08" cy="244.89" r="3.53"/>
	<circle class="st59" cx="1239.36" cy="346.76" r="3.53"/>
	<circle class="st59" cx="1264.18" cy="389.27" r="3.53"/>
	<path class="st57" d="M1392.69,345.97l0-18.16l-10.84-2.33c-0.55-2.23-1.23-4.4-2.02-6.52l8.14-7.35l-9.08-15.73l-11.22,3.63
		c-1.44-1.51-2.93-2.96-4.51-4.31l3.54-10.98l-15.73-9.08l-8,8.85c-1.94-0.61-3.94-1.12-5.96-1.54l-2.43-11.32h-18.16l-2.43,11.33
		c-2.15,0.43-4.25,0.99-6.31,1.66l-7.46-8.25l-15.73,9.08l3.32,10.28c-1.84,1.58-3.56,3.28-5.2,5.07l-9.78-3.16l-9.09,15.73
		l7.25,6.55c-0.94,2.58-1.76,5.21-2.34,7.94l-8.91,1.91v18.17l8.52,1.83c0.52,3.05,1.27,6.02,2.25,8.9l-6.05,5.46l9.08,15.73
		l7.56-2.44c2.12,2.51,4.44,4.83,6.95,6.95l-2.31,7.16l15.73,9.09l5.18-5.73c3.1,1.07,6.32,1.86,9.64,2.39l1.57,7.35l18.17,0
		l1.68-7.85c3.16-0.68,6.21-1.64,9.16-2.8l5.35,5.93l15.73-9.08l-2.75-8.49c2.13-2,4.11-4.14,5.92-6.44l8.48,2.74l9.09-15.73
		l-7.42-6.71c0.71-2.46,1.24-5,1.63-7.59L1392.69,345.97z M1350.4,339.44c0,13.76-11.15,24.9-24.91,24.9
		c-13.75,0-24.91-11.15-24.91-24.9c0-13.76,11.15-24.91,24.91-24.91C1339.25,314.53,1350.4,325.68,1350.4,339.44"/>
	<path class="st60" d="M1392.72,345.97l0-18.16l-10.84-2.33c-0.55-2.23-1.22-4.4-2.02-6.52l8.14-7.35l-9.08-15.73l-11.22,3.63
		c-1.44-1.51-2.93-2.96-4.52-4.31l3.54-10.98l-15.73-9.08l-8,8.85c-1.94-0.61-3.94-1.12-5.96-1.54l-2.43-11.32h-18.16l-2.43,11.33
		c-2.15,0.43-4.25,0.99-6.31,1.66l-7.46-8.25l-15.73,9.08l3.33,10.28c-1.85,1.58-3.57,3.28-5.2,5.07l-9.78-3.16l-9.09,15.73
		l7.24,6.55c-0.94,2.58-1.76,5.21-2.34,7.94l-8.91,1.91v18.17l8.52,1.83c0.52,3.05,1.27,6.02,2.25,8.9l-6.05,5.46l9.08,15.73
		l7.56-2.44c2.12,2.51,4.44,4.83,6.95,6.95l-2.31,7.16l15.73,9.09l5.17-5.73c3.1,1.07,6.33,1.86,9.64,2.39l1.57,7.35l18.17,0
		l1.68-7.85c3.16-0.68,6.21-1.64,9.16-2.8l5.35,5.93l15.73-9.08l-2.75-8.49c2.13-2,4.11-4.14,5.92-6.44l8.48,2.74l9.09-15.73
		l-7.42-6.71c0.71-2.46,1.24-5,1.63-7.59L1392.72,345.97z M1350.42,339.44c0,13.76-11.15,24.9-24.91,24.9
		c-13.75,0-24.9-11.15-24.9-24.9c0-13.76,11.15-24.91,24.9-24.91C1339.28,314.53,1350.42,325.68,1350.42,339.44z"/>
	<path class="st61" d="M1325.47,297.19c-23.36,0-42.3,18.94-42.3,42.31c0,23.36,18.94,42.31,42.3,42.31
		c23.37,0,42.31-18.95,42.31-42.31C1367.78,316.12,1348.83,297.19,1325.47,297.19z"/>
	<path class="st54" d="M1238.77,343.78c-0.9-5.1-1.37-10.34-1.37-15.7c0-36.98,22.41-68.73,54.4-82.4"/>
	<path class="st55" d="M1231.59,321.08h-2.96c-0.35-0.98-0.88-1.87-1.55-2.64l1.48-2.55c-1.33-1.29-2.98-2.25-4.82-2.75l-1.48,2.57
		c-0.47-0.08-0.94-0.13-1.44-0.13c-0.53,0-1.06,0.05-1.56,0.15l-1.48-2.55c-1.83,0.52-3.47,1.5-4.79,2.8l1.48,2.56
		c-0.63,0.75-1.13,1.61-1.46,2.54h-2.96c-0.23,0.89-0.35,1.83-0.35,2.79c0,0.95,0.12,1.87,0.34,2.75h2.95
		c0.33,0.95,0.83,1.82,1.46,2.57l-1.48,2.56c1.31,1.31,2.95,2.29,4.78,2.81l1.48-2.55c0.51,0.1,1.04,0.15,1.58,0.15
		c0.5,0,0.98-0.05,1.46-0.13l1.48,2.56c1.84-0.5,3.49-1.47,4.81-2.76l-1.48-2.55c0.67-0.78,1.19-1.68,1.54-2.66h2.95
		c0.22-0.88,0.34-1.8,0.34-2.75C1231.95,322.91,1231.82,321.97,1231.59,321.08z M1220.82,326.51c-1.46,0-2.63-1.18-2.63-2.63
		c0-1.45,1.18-2.63,2.63-2.63c1.45,0,2.63,1.18,2.63,2.63C1223.46,325.33,1222.28,326.51,1220.82,326.51z"/>
	<path class="st54" d="M1355.47,411.83h-81.88c-5.59,0-10.12-4.53-10.12-10.12v-8.94"/>
	<path class="st54" d="M1465.37,370.58v31.13c0,5.59-4.53,10.12-10.12,10.12h-92.72"/>
	<path class="st54" d="M1443.7,324.92c-7.17-12.56-20.34-21.38-35.62-22.27c-0.12-0.01-0.24-0.01-0.36-0.02
		c-4.02-0.2-7.7-2.4-9.56-5.98c-8.91-17.16-25.25-29.85-44.76-33.79"/>
	<path class="st6" d="M1589.88,471.49c0,1.15-0.93,2.07-2.07,2.07s-2.07-0.93-2.07-2.07c0-1.15,0.93-2.07,2.07-2.07
		C1588.95,469.42,1589.88,470.34,1589.88,471.49"/>
	<path class="st6" d="M1103.37,52.01c0,1.15-0.93,2.07-2.07,2.07c-1.14,0-2.07-0.93-2.07-2.07s0.93-2.07,2.07-2.07
		C1102.45,49.94,1103.37,50.86,1103.37,52.01"/>
	<path class="st16" d="M1763.27,290.01c0,1.23-1,2.23-2.23,2.23c-1.23,0-2.23-1-2.23-2.23c0-1.23,1-2.23,2.23-2.23
		C1762.27,287.78,1763.27,288.78,1763.27,290.01"/>
	<path class="st6" d="M1592.97,165.08c0,2.21-1.79,4-4,4c-2.21,0-4-1.79-4-4s1.79-4,4-4
		C1591.18,161.08,1592.97,162.87,1592.97,165.08"/>
	<path class="st6" d="M1447.53,458.23c0,2.21-1.79,4-4,4s-4-1.79-4-4s1.79-4,4-4C1445.74,454.23,1447.53,456.02,1447.53,458.23"/>
	<path class="st4" d="M1719.07,366.4h-7.33c-0.56,0-1-0.45-1-1s0.44-1,1-1h7.33c0.55,0,1,0.45,1,1
		C1720.07,365.95,1719.62,366.4,1719.07,366.4"/>
	<path class="st4" d="M1715.4,370.07c-0.56,0-1-0.45-1-1v-7.33c0-0.55,0.44-1,1-1c0.55,0,1,0.45,1,1v7.33
		C1716.4,369.62,1715.96,370.07,1715.4,370.07"/>
	<path class="st4" d="M1474.64,568.42h-7.33c-0.55,0-1-0.45-1-1c0-0.55,0.45-1,1-1h7.33c0.55,0,1,0.45,1,1
		C1475.64,567.97,1475.19,568.42,1474.64,568.42"/>
	<path class="st4" d="M1470.97,572.08c-0.55,0-1-0.45-1-1v-7.33c0-0.55,0.45-1,1-1c0.56,0,1,0.45,1,1v7.33
		C1471.97,571.64,1471.52,572.08,1470.97,572.08"/>
	<path class="st4" d="M1547.46,283.44h-7.33c-0.55,0-1-0.45-1-1s0.45-1,1-1h7.33c0.55,0,1,0.45,1,1
		C1548.46,282.99,1548.01,283.44,1547.46,283.44"/>
	<path class="st4" d="M1543.79,287.1c-0.55,0-1-0.45-1-1v-7.33c0-0.55,0.45-1,1-1s1,0.45,1,1v7.33
		C1544.79,286.65,1544.35,287.1,1543.79,287.1"/>
	<path class="st17" d="M1739.5,508.56h-6.27l-3.14-5.43l3.14-5.44h6.27l3.14,5.44L1739.5,508.56z M1734.09,507.06h4.54l2.27-3.93
		l-2.27-3.94h-4.54l-2.27,3.94L1734.09,507.06z"/>
	<path class="st17" d="M1299.11,588.22h-6.27l-3.14-5.43l3.14-5.43h6.27l3.14,5.43L1299.11,588.22z M1293.7,586.72h4.54l2.27-3.93
		l-2.27-3.93h-4.54l-2.27,3.93L1293.7,586.72z"/>
	<path class="st17" d="M1432.83,237.58h-6.27l-3.14-5.43l3.14-5.43h6.27l3.14,5.43L1432.83,237.58z M1427.43,236.08h4.54l2.27-3.93
		l-2.27-3.93h-4.54l-2.27,3.93L1427.43,236.08z"/>
	<circle class="st62" cx="1541.68" cy="618.08" r="3.29"/>
	<ellipse class="st63" cx="1279.56" cy="498.46" rx="3.05" ry="2.82"/>
	<path class="st6" d="M1132.77,509.5c0,1.27-1.03,2.3-2.3,2.3c-1.27,0-2.3-1.03-2.3-2.3c0-1.27,1.03-2.3,2.3-2.3
		C1131.74,507.2,1132.77,508.23,1132.77,509.5"/>
	<path class="st4" d="M1300.26,75.63h-6.74c-0.51,0-0.92-0.41-0.92-0.92c0-0.51,0.41-0.92,0.92-0.92h6.74
		c0.51,0,0.92,0.41,0.92,0.92C1301.17,75.22,1300.76,75.63,1300.26,75.63"/>
	<path class="st4" d="M1296.89,79c-0.51,0-0.92-0.41-0.92-0.92v-6.74c0-0.51,0.41-0.92,0.92-0.92c0.51,0,0.92,0.41,0.92,0.92v6.74
		C1297.81,78.59,1297.39,79,1296.89,79"/>
	<path class="st17" d="M1168.1,70.46h-5.76l-2.88-4.99l2.88-4.99h5.76l2.88,4.99L1168.1,70.46z M1163.13,69.08h4.17l2.09-3.61
		l-2.09-3.62h-4.17l-2.09,3.62L1163.13,69.08z"/>
	<path class="st6" d="M392.37,52.01c0,1.15-0.93,2.07-2.07,2.07c-1.15,0-2.07-0.93-2.07-2.07s0.93-2.07,2.07-2.07
		C391.45,49.94,392.37,50.86,392.37,52.01"/>
	<path class="st4" d="M589.26,75.63h-6.74c-0.51,0-0.92-0.41-0.92-0.92c0-0.51,0.41-0.92,0.92-0.92h6.74c0.51,0,0.92,0.41,0.92,0.92
		C590.17,75.22,589.76,75.63,589.26,75.63"/>
	<path class="st4" d="M585.89,79c-0.51,0-0.92-0.41-0.92-0.92v-6.74c0-0.51,0.41-0.92,0.92-0.92s0.92,0.41,0.92,0.92v6.74
		C586.81,78.59,586.39,79,585.89,79"/>
	<path class="st17" d="M457.1,70.46h-5.76l-2.88-4.99l2.88-4.99h5.76l2.88,4.99L457.1,70.46z M452.13,69.08h4.17l2.09-3.61
		l-2.09-3.62h-4.17l-2.09,3.62L452.13,69.08z"/>
	<path class="st56" d="M1177.77,568.44c2.64,0,4.78,2.14,4.78,4.78c0,2.64-2.14,4.78-4.78,4.78c-2.64,0-4.78-2.14-4.78-4.78
		C1172.99,570.58,1175.13,568.44,1177.77,568.44"/>
	<path class="st4" d="M176.39,399.72h-6.74c-0.51,0-0.92-0.41-0.92-0.92s0.41-0.92,0.92-0.92h6.74c0.51,0,0.92,0.41,0.92,0.92
		S176.9,399.72,176.39,399.72"/>
	<path class="st4" d="M173.02,403.09c-0.51,0-0.92-0.41-0.92-0.92v-6.74c0-0.51,0.41-0.92,0.92-0.92c0.51,0,0.92,0.41,0.92,0.92
		v6.74C173.94,402.67,173.53,403.09,173.02,403.09"/>
	<line class="st18" x1="314.68" y1="442.66" x2="341.6" y2="442.66"/>
	<line class="st18" x1="172.93" y1="442.66" x2="302.65" y2="442.66"/>
	<line class="st18" x1="172.93" y1="496.54" x2="341.62" y2="496.54"/>
	<line class="st18" x1="172.93" y1="478.58" x2="217.91" y2="478.58"/>
	<line class="st18" x1="232.39" y1="478.58" x2="341.04" y2="478.58"/>
	<polyline class="st18" points="161.2,451.14 156.31,442.76 161.2,434.38 	"/>
	<line class="st18" x1="172.93" y1="460.62" x2="262.79" y2="460.62"/>
	<line class="st18" x1="278.8" y1="460.62" x2="341.32" y2="460.62"/>
	<polyline class="st18" points="354.14,487.88 359.04,496.26 354.14,504.64 	"/>
	<path class="st17" d="M387.11,434.22h-6.27l-3.14-5.43l3.14-5.43h6.27l3.14,5.43L387.11,434.22z M381.7,432.72h4.54l2.27-3.93
		l-2.27-3.93h-4.54l-2.27,3.93L381.7,432.72z"/>
	<path class="st56" d="M265.77,414.44c2.64,0,4.78,2.14,4.78,4.78c0,2.64-2.14,4.78-4.78,4.78c-2.64,0-4.78-2.14-4.78-4.78
		C260.99,416.58,263.13,414.44,265.77,414.44"/>
	<path class="st56" d="M1471.97,262.08c2.64,0,4.78,2.14,4.78,4.78c0,2.64-2.14,4.78-4.78,4.78c-2.64,0-4.78-2.14-4.78-4.78
		C1467.19,264.22,1469.33,262.08,1471.97,262.08"/>
	<path class="st56" d="M918.42,395.61c2.64,0,4.78,2.14,4.78,4.78s-2.14,4.78-4.78,4.78s-4.78-2.14-4.78-4.78
		C913.64,397.75,915.77,395.61,918.42,395.61"/>
	<path class="st4" d="M93.51,442.02h-7.33c-0.55,0-1-0.45-1-1s0.45-1,1-1h7.33c0.55,0,1,0.45,1,1S94.06,442.02,93.51,442.02"/>
	<path class="st4" d="M89.84,445.68c-0.55,0-1-0.45-1-1v-7.33c0-0.55,0.45-1,1-1s1,0.45,1,1v7.33
		C90.84,445.24,90.39,445.68,89.84,445.68"/>
	<path class="st6" d="M107.59,511.18c-0.15-0.96,0.5-1.86,1.46-2.02c0.96-0.15,1.86,0.5,2.02,1.47c0.15,0.96-0.5,1.86-1.46,2.02
		C108.64,512.79,107.74,512.14,107.59,511.18"/>
	<path class="st56" d="M58.42,415.61c2.64,0,4.78,2.14,4.78,4.78s-2.14,4.78-4.78,4.78s-4.78-2.14-4.78-4.78
		C53.64,417.75,55.77,415.61,58.42,415.61"/>
	<path class="st58" d="M1467.89,488.08c1.49,0,2.7,1.21,2.7,2.7c0,1.49-1.21,2.7-2.7,2.7c-1.49,0-2.69-1.21-2.69-2.7
		C1465.19,489.29,1466.4,488.08,1467.89,488.08"/>
	<path class="st58" d="M1756.97,444.08c1.49,0,2.7,1.21,2.7,2.7c0,1.49-1.21,2.7-2.7,2.7c-1.49,0-2.7-1.21-2.7-2.7
		C1754.27,445.29,1755.48,444.08,1756.97,444.08"/>
	<line class="st18" x1="125.31" y1="182.54" x2="181.89" y2="182.54"/>
	<line class="st18" x1="125.31" y1="218.78" x2="182.16" y2="218.78"/>
	<line class="st18" x1="125.31" y1="206.7" x2="181.89" y2="206.7"/>
	<polyline class="st18" points="117.69,188.25 114.5,182.61 117.69,176.97 	"/>
	<line class="st18" x1="125.31" y1="194.62" x2="160.12" y2="194.62"/>
	<polyline class="st18" points="188.72,213.67 191.91,219.3 188.72,224.94 	"/>
	<path class="st6" d="M150.88,251.49c0,1.15-0.93,2.07-2.07,2.07c-1.14,0-2.07-0.93-2.07-2.07c0-1.15,0.93-2.07,2.07-2.07
		C149.95,249.42,150.88,250.34,150.88,251.49"/>
	<path class="st58" d="M317.97,224.08c1.49,0,2.7,1.21,2.7,2.7c0,1.49-1.21,2.7-2.7,2.7s-2.7-1.21-2.7-2.7
		C315.27,225.29,316.48,224.08,317.97,224.08"/>
	<path class="st6" d="M124.73,264.13c0,1.15-0.93,2.07-2.07,2.07c-1.15,0-2.07-0.93-2.07-2.07c0-1.15,0.93-2.07,2.07-2.07
		C123.8,262.06,124.73,262.99,124.73,264.13"/>
	<path class="st4" d="M72.07,69.4h-7.33c-0.56,0-1-0.45-1-1s0.44-1,1-1h7.33c0.55,0,1,0.45,1,1C73.07,68.95,72.62,69.4,72.07,69.4"
		/>
	<path class="st4" d="M68.4,73.07c-0.56,0-1-0.45-1-1v-7.33c0-0.55,0.44-1,1-1c0.55,0,1,0.45,1,1v7.33
		C69.4,72.62,68.96,73.07,68.4,73.07"/>
	<path class="st17" d="M92.5,211.56h-6.27l-3.14-5.43l3.14-5.44h6.27l3.14,5.44L92.5,211.56z M87.09,210.06h4.54l2.27-3.93
		l-2.27-3.94h-4.54l-2.27,3.94L87.09,210.06z"/>
	<path class="st58" d="M109.97,147.08c1.49,0,2.7,1.21,2.7,2.7c0,1.49-1.21,2.7-2.7,2.7s-2.7-1.21-2.7-2.7
		C107.27,148.29,108.48,147.08,109.97,147.08"/>
	<path class="st58" d="M1254.14,189.62c1.29-0.74,2.94-0.3,3.69,0.99c0.74,1.29,0.3,2.94-0.99,3.68c-1.29,0.74-2.94,0.3-3.69-0.99
		C1252.41,192.02,1252.85,190.37,1254.14,189.62"/>
	<a xlink:href="https://docs.webmethods.io/index_files/product/index.html" >
		<path id="b2b-d_1_" class="st6" d="M338.3,98.33c-0.71,0-1.4,0.08-2.07,0.23l-9.5-16.46c-0.38-0.65-1.07-1.05-1.82-1.05h-13v-5.56
			l-7.66,7.66l7.66,7.66v-5.56h11.79l8.71,15.09c-2.29,1.77-3.77,4.54-3.77,7.66c0,3.25,1.61,6.13,4.08,7.88l-7.8,13.51L297.6,82.1
			c-0.38-0.65-1.07-1.05-1.82-1.05h0c-0.75,0-1.44,0.4-1.82,1.05l-9.49,16.38c-0.55-0.1-1.1-0.15-1.67-0.15
			c-5.33,0-9.67,4.34-9.67,9.67c0,5.33,4.34,9.67,9.67,9.67c0.44,0,0.87-0.03,1.3-0.09l9.85,17.07c0.38,0.65,1.07,1.05,1.82,1.05
			h12.99v5.56l7.66-7.66l-7.66-7.66v5.56H297l-8.9-15.41c2.63-1.73,4.38-4.71,4.38-8.09c0-3.19-1.56-6.11-4.09-7.9l7.39-12.75
			l27.31,47.3c0.38,0.65,1.07,1.05,1.82,1.05c0.75,0,1.44-0.4,1.82-1.05l9.89-17.13c0.55,0.1,1.11,0.15,1.68,0.15
			c5.33,0,9.67-4.34,9.67-9.67C347.97,102.67,343.63,98.33,338.3,98.33 M282.81,113.47c-3.01,0-5.46-2.45-5.46-5.47
			c0-3.01,2.45-5.46,5.46-5.46c0.74,0,1.46,0.14,2.13,0.43c2.02,0.86,3.33,2.83,3.33,5.03
			C288.27,111.01,285.82,113.47,282.81,113.47"/>
	</a>
	<g>
		<path class="st16" d="M1789.95,98.49c0,1.23-1,2.23-2.23,2.23c-1.23,0-2.23-1-2.23-2.23c0-1.23,1-2.23,2.23-2.23
			C1788.95,96.26,1789.95,97.26,1789.95,98.49"/>
		<path class="st17" d="M1803.31,170.45h-6.27l-3.14-5.43l3.14-5.43h6.27l3.14,5.43L1803.31,170.45z M1797.9,168.95h4.54l2.27-3.93
			l-2.27-3.93h-4.54l-2.27,3.93L1797.9,168.95z"/>
		<a xlink:href="https://docs.webmethods.io/index_files/product/index.html" >
			<path id="wM-api_1_" class="st57" d="M1788.03,136.19c0,27.66-22.42,50.08-50.08,50.08c-27.66,0-50.08-22.42-50.08-50.08
				s22.42-50.08,50.08-50.08C1765.61,86.12,1788.03,108.54,1788.03,136.19"/>
			<circle id="wM-api-b_1_" class="st54" cx="1737.95" cy="136.19" r="58.23"/>
		</a>
		<path class="st6" d="M1736.53,194.77c-0.15-0.96,0.5-1.86,1.46-2.02c0.96-0.15,1.86,0.5,2.02,1.46c0.15,0.96-0.5,1.86-1.46,2.02
			C1737.59,196.39,1736.69,195.73,1736.53,194.77"/>
		<circle class="st59" cx="1738.27" cy="194.49" r="1.76"/>
		<a xlink:href="https://docs.webmethods.io/index_files/product/index.html" >
			<path id="api-d_1_" class="st6" d="M1766.03,129.03L1766.03,129.03c-0.62,0-1.23,0.09-1.81,0.24l-7.1-12.29
				c1.33-1.29,2.15-3.09,2.15-5.09c0-3.93-3.18-7.11-7.11-7.11c-0.49,0-0.97,0.05-1.43,0.14c-1.62,0.33-3.04,1.21-4.05,2.44
				c-0.14,0.18-0.28,0.36-0.41,0.55c-0.26,0.38-0.47,0.78-0.65,1.21c-0.36,0.85-0.56,1.79-0.56,2.77c0,0.98,0.2,1.92,0.56,2.77
				c0.18,0.43,0.4,0.83,0.65,1.21c0.13,0.19,0.27,0.37,0.41,0.55c1.02,1.23,2.43,2.11,4.05,2.44c0.46,0.1,0.94,0.14,1.43,0.14
				c0.35,0,0.69-0.03,1.02-0.08l7.35,12.72c-0.58,0.7-1.02,1.52-1.3,2.41h-7.76c-1.01-6.43-6.59-11.36-13.3-11.36
				s-12.29,4.93-13.3,11.36h-8.22c-0.14-0.45-0.32-0.88-0.54-1.29c-0.11-0.2-0.23-0.4-0.36-0.59c-0.24-0.36-0.52-0.7-0.82-1.01
				l7.16-12.41c0.58,0.16,1.2,0.24,1.83,0.24c3.93,0,7.11-3.18,7.11-7.11s-3.18-7.11-7.11-7.11c-0.73,0-1.45,0.11-2.11,0.32
				c-0.22,0.07-0.44,0.15-0.65,0.24c-0.42,0.18-0.83,0.4-1.21,0.66c-0.38,0.26-0.73,0.55-1.05,0.87c-1.29,1.29-2.08,3.06-2.08,5.03
				c0,1.7,0.6,3.26,1.6,4.49l-7.37,12.77c-0.39-0.06-0.78-0.11-1.18-0.11c-3.93,0-7.11,3.18-7.11,7.11s3.18,7.11,7.11,7.11
				c0.17,0,0.33-0.01,0.49-0.02l7.68,13.3c-0.77,1.13-1.22,2.5-1.22,3.98c0,1.96,0.8,3.74,2.08,5.03c0.32,0.32,0.67,0.61,1.05,0.87
				c0.38,0.26,0.78,0.48,1.21,0.66c0.21,0.09,0.43,0.17,0.65,0.24c0.67,0.21,1.38,0.32,2.11,0.32c3.93,0,7.11-3.18,7.11-7.11
				s-3.18-7.11-7.11-7.11c-0.73,0-1.45,0.11-2.11,0.32c-0.1,0.03-0.19,0.07-0.29,0.11l-7.07-12.25c0.15-0.13,0.3-0.26,0.44-0.4
				c0.32-0.32,0.61-0.67,0.87-1.05c0.13-0.19,0.25-0.38,0.36-0.59c0.19-0.35,0.35-0.72,0.48-1.11h8.31
				c1.09,6.34,6.62,11.18,13.27,11.18c6.65,0,12.18-4.84,13.27-11.18h7.85c0.35,1.03,0.93,1.96,1.68,2.72l-7.18,12.44
				c-0.52-0.12-1.07-0.2-1.63-0.2c-0.49,0-0.97,0.05-1.43,0.15c-1.62,0.33-3.04,1.21-4.05,2.44c-0.14,0.18-0.28,0.36-0.41,0.55
				c-0.26,0.38-0.47,0.78-0.65,1.21c-0.36,0.85-0.56,1.79-0.56,2.77c0,0.98,0.2,1.92,0.56,2.77c0.18,0.43,0.4,0.83,0.65,1.21
				c0.13,0.19,0.27,0.37,0.41,0.55c1.02,1.23,2.43,2.11,4.05,2.44c0.46,0.1,0.94,0.15,1.43,0.15c3.93,0,7.11-3.18,7.11-7.11
				c0-1.78-0.66-3.4-1.73-4.65l7.33-12.7c0.38,0.06,0.76,0.1,1.15,0.1c3.93,0,7.11-3.18,7.11-7.11
				C1773.14,132.21,1769.95,129.03,1766.03,129.03 M1738.18,145.22c-5.01,0-9.08-4.07-9.08-9.08s4.07-9.08,9.08-9.08
				c5.01,0,9.08,4.08,9.08,9.08C1747.26,141.15,1743.19,145.22,1738.18,145.22"/>
		</a>
	</g>
	<path class="st64" d="M1227.89,389.06c0,4.83-3.92,8.75-8.75,8.75s-8.75-3.92-8.75-8.75s3.92-8.75,8.75-8.75
		S1227.89,384.22,1227.89,389.06"/>
	<path class="st64" d="M1267.5,267.81c0,3.82-3.1,6.92-6.92,6.92c-3.82,0-6.92-3.1-6.92-6.92c0-3.82,3.1-6.92,6.92-6.92
		C1264.41,260.89,1267.5,263.99,1267.5,267.81"/>
	<path class="st64" d="M1429.64,367.55c0,4.83-3.92,8.75-8.75,8.75c-4.83,0-8.75-3.92-8.75-8.75s3.92-8.75,8.75-8.75
		C1425.72,358.8,1429.64,362.72,1429.64,367.55"/>
	<path class="st64" d="M1420.89,328.05c0,3.73-3.02,6.75-6.75,6.75s-6.75-3.02-6.75-6.75s3.02-6.75,6.75-6.75
		C1417.86,321.3,1420.89,324.33,1420.89,328.05"/>
	<path class="st58" d="M1281.59,266.93l-5.4-1.12c-0.27-1.92-0.9-3.75-1.83-5.41l3.67-4.11c-1.94-2.86-4.6-5.25-7.77-6.86
		l-3.69,4.13c-0.82-0.33-1.69-0.59-2.58-0.78c-0.98-0.2-1.95-0.3-2.91-0.32l-1.73-5.23c-3.55,0.25-6.92,1.42-9.82,3.3l1.73,5.25
		c-1.43,1.13-2.67,2.51-3.64,4.1l-5.41-1.12c-0.76,1.55-1.34,3.21-1.71,4.98c-0.36,1.74-0.49,3.47-0.42,5.17l5.4,1.12
		c0.25,1.86,0.83,3.63,1.7,5.25l-3.68,4.12c1.91,2.89,4.53,5.31,7.68,6.96l3.67-4.11c0.9,0.38,1.85,0.67,2.84,0.88
		c0.91,0.19,1.82,0.29,2.72,0.32l1.73,5.25c3.56-0.22,6.94-1.36,9.85-3.21l-1.73-5.23c1.52-1.16,2.83-2.61,3.84-4.28l5.4,1.12
		c0.75-1.52,1.32-3.17,1.68-4.9C1281.55,270.41,1281.68,268.65,1281.59,266.93 M1259.84,272.76c-2.66-0.55-4.37-3.16-3.82-5.82
		c0.56-2.66,3.16-4.37,5.82-3.82c2.66,0.55,4.37,3.16,3.82,5.82C1265.1,271.61,1262.5,273.32,1259.84,272.76"/>
	<path class="st4" d="M1246.08,381.97h-7.36c-0.87-2.43-2.19-4.65-3.85-6.57l3.67-6.35c-3.31-3.21-7.42-5.6-12-6.84l-3.69,6.39
		c-1.16-0.2-2.36-0.32-3.58-0.32c-1.33,0-2.63,0.13-3.89,0.37l-3.68-6.36c-4.56,1.29-8.65,3.73-11.92,6.98l3.69,6.38
		c-1.56,1.86-2.81,4-3.65,6.33h-7.36c-0.57,2.22-0.88,4.56-0.88,6.96c0,2.37,0.3,4.66,0.86,6.85h7.35c0.83,2.35,2.07,4.52,3.65,6.4
		l-3.69,6.38c3.27,3.25,7.35,5.69,11.91,7l3.68-6.35c1.27,0.25,2.59,0.38,3.94,0.38c1.24,0,2.45-0.11,3.63-0.32l3.69,6.38
		c4.58-1.25,8.68-3.65,11.98-6.86l-3.68-6.35c1.67-1.93,2.98-4.17,3.85-6.63h7.35c0.56-2.19,0.85-4.49,0.85-6.85
		C1246.96,386.52,1246.66,384.19,1246.08,381.97 M1219.28,395.48c-3.62,0-6.56-2.94-6.56-6.56c0-3.62,2.94-6.56,6.56-6.56
		s6.56,2.94,6.56,6.56S1222.9,395.48,1219.28,395.48"/>
	<path class="st56" d="M1444.02,361.44h-6.36c-0.75-2.1-1.89-4.02-3.32-5.67l3.17-5.49c-2.86-2.77-6.41-4.84-10.36-5.91l-3.19,5.52
		c-1.01-0.18-2.04-0.27-3.09-0.27c-1.15,0-2.27,0.11-3.36,0.32l-3.18-5.5c-3.94,1.12-7.47,3.22-10.3,6.03l3.19,5.51
		c-1.35,1.61-2.43,3.46-3.15,5.47h-6.36c-0.5,1.92-0.76,3.94-0.76,6.01c0,2.04,0.26,4.03,0.74,5.92h6.35
		c0.72,2.04,1.79,3.9,3.15,5.52l-3.19,5.52c2.83,2.81,6.35,4.92,10.29,6.05l3.17-5.49c1.1,0.21,2.24,0.33,3.41,0.33
		c1.07,0,2.12-0.1,3.14-0.28l3.19,5.51c3.96-1.08,7.5-3.15,10.35-5.93l-3.18-5.49c1.44-1.67,2.58-3.6,3.32-5.73h6.35
		c0.48-1.9,0.74-3.88,0.74-5.92C1444.79,365.38,1444.52,363.36,1444.02,361.44 M1420.86,373.12c-3.13,0-5.66-2.54-5.66-5.67
		c0-3.13,2.54-5.67,5.66-5.67c3.13,0,5.67,2.53,5.67,5.67C1426.53,370.58,1423.99,373.12,1420.86,373.12"/>
	<path class="st16" d="M1428.75,323.95h-3.99c-0.47-1.32-1.19-2.52-2.09-3.56l1.99-3.45c-1.8-1.74-4.02-3.04-6.51-3.71l-2,3.46
		c-0.64-0.11-1.28-0.17-1.94-0.17c-0.72,0-1.43,0.07-2.11,0.2l-2-3.45c-2.47,0.7-4.69,2.02-6.47,3.78l2,3.46
		c-0.85,1.01-1.52,2.17-1.98,3.43h-3.99c-0.31,1.21-0.48,2.47-0.48,3.77c0,1.28,0.16,2.53,0.46,3.72h3.98
		c0.45,1.28,1.12,2.45,1.98,3.47l-2,3.46c1.77,1.77,3.98,3.09,6.46,3.8l1.99-3.45c0.69,0.13,1.4,0.21,2.14,0.21
		c0.67,0,1.33-0.06,1.97-0.18l2,3.46c2.48-0.68,4.71-1.98,6.5-3.73l-1.99-3.45c0.91-1.05,1.62-2.26,2.09-3.6h3.98
		c0.31-1.19,0.46-2.43,0.46-3.72C1429.23,326.42,1429.06,325.15,1428.75,323.95 M1414.21,331.28c-1.96,0-3.56-1.59-3.56-3.56
		c0-1.96,1.59-3.56,3.56-3.56s3.56,1.59,3.56,3.56C1417.76,329.69,1416.17,331.28,1414.21,331.28"/>
	<a xlink:href="https://docs.webmethods.io/index_files/product/index.html" >
		<g id="wM-int-c_1_">
			<line class="st59" x1="1559.66" y1="525.67" x2="1559.66" y2="525.67"/>
			<line class="st59" x1="1559.66" y1="525.68" x2="1559.66" y2="525.68"/>
			<line class="st59" x1="1559.63" y1="525.68" x2="1559.66" y2="525.68"/>
			<line class="st59" x1="1559.66" y1="525.67" x2="1559.66" y2="525.67"/>
			<line class="st59" x1="1559.66" y1="525.67" x2="1559.68" y2="525.66"/>
			<line class="st59" x1="1559.65" y1="525.67" x2="1559.66" y2="525.67"/>
			<line class="st59" x1="1559.66" y1="525.67" x2="1559.66" y2="525.68"/>
			<line class="st59" x1="1559.67" y1="525.66" x2="1559.66" y2="525.67"/>
			<line class="st59" x1="1559.66" y1="525.68" x2="1559.66" y2="525.67"/>
			<line class="st59" x1="1559.65" y1="525.67" x2="1559.66" y2="525.67"/>
			<line class="st59" x1="1559.65" y1="525.67" x2="1559.65" y2="525.67"/>
			<line class="st59" x1="1559.65" y1="525.67" x2="1559.66" y2="525.67"/>
			<line class="st59" x1="1559.67" y1="525.66" x2="1559.68" y2="525.66"/>
			<line class="st59" x1="1559.66" y1="525.67" x2="1559.66" y2="525.67"/>
			<line class="st59" x1="1559.67" y1="525.66" x2="1559.66" y2="525.67"/>
			<line class="st59" x1="1559.63" y1="525.68" x2="1559.65" y2="525.67"/>
			<line class="st59" x1="1559.66" y1="525.67" x2="1559.66" y2="525.67"/>
			<polygon class="st65" points="1488.42,515.93 1490.44,524.05 1490.47,524.05 1493.12,515.93 1495.72,515.93 1498.35,524.27 
				1498.38,524.27 1500.51,515.93 1503.34,515.93 1499.63,528.6 1497.15,528.6 1494.35,519.83 1494.32,519.83 1491.53,528.6 
				1489.13,528.6 1485.37,515.93 			"/>
			<polygon class="st65" points="1513.31,515.93 1513.31,518.51 1507.49,518.51 1507.49,520.87 1512.98,520.87 1512.98,523.45 
				1507.49,523.45 1507.49,526.02 1513.63,526.02 1513.63,528.6 1504.7,528.6 1504.7,515.93 			"/>
			<path class="st65" d="M1520.69,515.93c2.23,0,4.52,0.55,4.52,3.22c0,1.41-0.88,2.38-2.18,2.79v0.04c1.48,0.18,2.77,1.29,2.77,3.1
				c0,2.65-2.5,3.52-4.74,3.52h-5.21v-12.67H1520.69z M1520.73,521c0.86,0,1.7-0.41,1.7-1.38c0-1.02-0.96-1.32-1.82-1.32h-1.95v2.7
				H1520.73z M1521.21,526.24c0.91,0,1.81-0.46,1.81-1.48c0-1.16-1.27-1.4-2.18-1.4h-2.18v2.88L1521.21,526.24L1521.21,526.24z"/>
			<polygon class="st65" points="1531.68,515.93 1534.6,524.2 1534.63,524.2 1537.57,515.93 1541.77,515.93 1541.77,528.6 
				1538.98,528.6 1538.98,518.88 1538.94,518.88 1535.62,528.6 1533.49,528.6 1530.29,518.88 1530.25,518.88 1530.25,528.6 
				1527.46,528.6 1527.46,515.93 			"/>
			<polygon class="st65" points="1553.06,515.93 1553.06,518.51 1547.25,518.51 1547.25,520.87 1552.74,520.87 1552.74,523.45 
				1547.25,523.45 1547.25,526.02 1553.38,526.02 1553.38,528.6 1544.46,528.6 1544.46,515.93 			"/>
			<polygon class="st65" points="1564.48,515.93 1564.48,518.4 1560.86,518.4 1560.86,528.6 1558.07,528.6 1558.07,518.4 
				1554.46,518.4 1554.46,515.93 			"/>
			<polygon class="st65" points="1568.68,515.93 1568.68,520.66 1574.1,520.66 1574.1,515.93 1576.89,515.93 1576.89,528.6 
				1574.1,528.6 1574.1,523.12 1568.68,523.12 1568.68,528.6 1565.89,528.6 1565.89,515.93 			"/>
			<path class="st65" d="M1592.46,522.27c0,4.03-2.86,6.65-6.83,6.65c-3.99,0-6.84-2.61-6.84-6.65c0-4.04,2.85-6.66,6.84-6.66
				C1589.65,515.61,1592.46,518.24,1592.46,522.27 M1585.63,526.34c2.36,0,3.94-1.7,3.94-4.08c0-2.38-1.57-4.08-3.95-4.08
				c-2.35,0-3.92,1.68-3.92,4.08C1581.69,524.64,1583.25,526.34,1585.63,526.34"/>
			<path class="st65" d="M1598.65,515.93c4.01,0,7.39,1.81,7.39,6.35c0,4.02-3.26,6.31-7.05,6.31h-4.63v-12.67H1598.65z
				 M1598.69,526.02c2.48,0,4.45-1.02,4.45-3.85c0-2.52-2.01-3.67-4.28-3.67h-1.72v7.52H1598.69L1598.69,526.02z"/>
			<path class="st65" d="M1616.12,516.93l-1.91,2.09c-0.45-0.57-1.34-0.84-2.02-0.84c-0.77,0-1.88,0.36-1.88,1.31
				c0,1.11,1.34,1.34,2.74,1.77c1.52,0.46,3.1,1.2,3.1,3.49c0,2.88-2.31,4.17-4.89,4.17c-1.63,0-3.06-0.47-4.26-1.59l1.98-2.18
				c0.59,0.75,1.49,1.2,2.44,1.2c0.77,0,1.93-0.34,1.93-1.32c0-1.11-1.34-1.4-2.76-1.86c-1.56-0.5-3.19-1.22-3.19-3.43
				c0-2.7,2.36-4.12,4.83-4.12C1613.65,515.61,1615.02,515.99,1616.12,516.93"/>
			<path class="st65" d="M1620.11,527.85c0,0.48-0.38,0.86-0.86,0.86c-0.48,0-0.86-0.38-0.86-0.86c0-0.48,0.38-0.86,0.86-0.86
				C1619.73,526.99,1620.11,527.36,1620.11,527.85"/>
			<path class="st65" d="M1624.53,517.06c0,0.45-0.34,0.81-0.81,0.81c-0.44,0-0.8-0.36-0.8-0.81c0-0.45,0.36-0.8,0.8-0.8
				C1624.19,516.25,1624.53,516.61,1624.53,517.06 M1623.19,520.33h1.07v8.27h-1.07V520.33z"/>
			<path class="st65" d="M1635.53,524.47c0,2.47-1.77,4.35-4.35,4.35c-2.54,0-4.35-1.82-4.35-4.35c0-2.51,1.79-4.35,4.35-4.35
				C1633.71,520.12,1635.53,521.94,1635.53,524.47 M1631.18,527.85c1.93,0,3.27-1.43,3.27-3.38c0-1.95-1.34-3.38-3.29-3.38
				c-1.9,0-3.25,1.43-3.25,3.38C1627.91,526.4,1629.23,527.85,1631.18,527.85"/>
			<rect x="1502.63" y="537.33" class="st65" width="1.19" height="12.7"/>
			<polygon class="st65" points="1508.82,537.33 1516.56,548.45 1516.59,548.45 1516.59,537.33 1517.77,537.33 1517.77,550.03 
				1516.25,550.03 1508.52,538.91 1508.48,538.91 1508.48,550.03 1507.3,550.03 1507.3,537.33 			"/>
			<polygon class="st65" points="1529.6,537.33 1529.6,538.4 1525.26,538.4 1525.26,550.03 1524.07,550.03 1524.07,538.4 
				1519.73,538.4 1519.73,537.33 			"/>
			<polygon class="st65" points="1539.32,537.33 1539.32,538.4 1532.74,538.4 1532.74,542.93 1538.91,542.93 1538.91,544 
				1532.74,544 1532.74,548.96 1539.61,548.96 1539.61,550.03 1531.56,550.03 1531.56,537.33 			"/>
			<path class="st65" d="M1552.51,538.76l-0.86,0.9c-0.81-0.98-2.44-1.58-3.71-1.58c-3.27,0-5.39,2.42-5.39,5.6
				c0,3.19,2.12,5.6,5.4,5.6c1.35,0,2.55-0.16,3.54-0.76v-4.27h-3.05v-1.08h4.23v6.03c-1.49,0.84-3.09,1.15-4.73,1.15
				c-3.91,0-6.57-2.87-6.57-6.68c0-3.82,2.67-6.67,6.57-6.67C1549.82,537.01,1551.35,537.58,1552.51,538.76"/>
			<path class="st65" d="M1559.58,537.33c2.94,0,4.43,1.17,4.43,3.34c0,1.79-0.98,2.96-3.25,3.27l3.7,6.1h-1.35l-3.57-6.03h-2.21
				v6.03h-1.19v-12.71L1559.58,537.33L1559.58,537.33z M1559.94,542.93c1.83,0,2.89-0.9,2.89-2.26c0-1.35-1-2.26-2.93-2.26h-2.57
				v4.52L1559.94,542.93L1559.94,542.93z"/>
			<path class="st65" d="M1571.91,537.33l5.35,12.7h-1.33l-1.38-3.37h-6.73l-1.44,3.37h-1.23l5.54-12.7H1571.91z M1568.28,545.58
				h5.83l-2.87-6.96L1568.28,545.58z"/>
			<polygon class="st65" points="1586.21,537.33 1586.21,538.4 1581.87,538.4 1581.87,550.03 1580.68,550.03 1580.68,538.4 
				1576.34,538.4 1576.34,537.33 			"/>
			<rect x="1588.17" y="537.33" class="st65" width="1.18" height="12.7"/>
			<path class="st65" d="M1605.14,543.68c0,3.82-2.67,6.68-6.57,6.68c-3.9,0-6.57-2.85-6.57-6.68c0-3.84,2.65-6.67,6.57-6.67
				C1602.54,537.01,1605.14,539.88,1605.14,543.68 M1598.57,549.28c3.25,0,5.38-2.4,5.38-5.6c0-3.19-2.08-5.6-5.4-5.6
				c-3.27,0-5.36,2.4-5.36,5.6C1593.19,546.87,1595.32,549.28,1598.57,549.28"/>
			<polygon class="st65" points="1609.32,537.33 1617.05,548.45 1617.09,548.45 1617.09,537.33 1618.27,537.33 1618.27,550.03 
				1616.75,550.03 1609.02,538.91 1608.98,538.91 1608.98,550.03 1607.8,550.03 1607.8,537.33 			"/>
		</g>
	</a>
	<a xlink:href="https://docs.webmethods.io/index_files/product/index.html" >
		<g id="api-c_1_">
			<polygon class="st65" points="1536.93,76.83 1538.95,84.96 1538.99,84.96 1541.64,76.83 1544.24,76.83 1546.87,85.17 
				1546.9,85.17 1549.03,76.83 1551.86,76.83 1548.16,89.51 1545.67,89.51 1542.87,80.73 1542.84,80.73 1540.05,89.51 
				1537.65,89.51 1533.89,76.83 			"/>
			<polygon class="st65" points="1561.84,76.83 1561.84,79.41 1556.02,79.41 1556.02,81.77 1561.52,81.77 1561.52,84.35 
				1556.02,84.35 1556.02,86.93 1562.16,86.93 1562.16,89.51 1553.23,89.51 1553.23,76.83 			"/>
			<path class="st65" d="M1569.24,76.83c2.24,0,4.53,0.55,4.53,3.22c0,1.41-0.88,2.38-2.18,2.79v0.04c1.48,0.18,2.78,1.29,2.78,3.1
				c0,2.65-2.51,3.53-4.75,3.53h-5.21V76.83L1569.24,76.83L1569.24,76.83z M1569.27,81.9c0.86,0,1.7-0.41,1.7-1.38
				c0-1.02-0.97-1.33-1.83-1.33h-1.95v2.7H1569.27z M1569.76,87.14c0.91,0,1.81-0.46,1.81-1.48c0-1.17-1.27-1.4-2.18-1.4h-2.19v2.88
				L1569.76,87.14L1569.76,87.14z"/>
			<polygon class="st65" points="1580.23,76.83 1583.15,85.1 1583.19,85.1 1586.13,76.83 1590.33,76.83 1590.33,89.51 
				1587.54,89.51 1587.54,79.78 1587.5,79.78 1584.17,89.51 1582.04,89.51 1578.84,79.78 1578.8,79.78 1578.8,89.51 1576.01,89.51 
				1576.01,76.83 			"/>
			<polygon class="st65" points="1601.63,76.83 1601.63,79.41 1595.81,79.41 1595.81,81.77 1601.31,81.77 1601.31,84.35 
				1595.81,84.35 1595.81,86.93 1601.96,86.93 1601.96,89.51 1593.02,89.51 1593.02,76.83 			"/>
			<polygon class="st65" points="1613.06,76.83 1613.06,79.3 1609.44,79.3 1609.44,89.51 1606.65,89.51 1606.65,79.3 1603.03,79.3 
				1603.03,76.83 			"/>
			<polygon class="st65" points="1617.27,76.83 1617.27,81.56 1622.7,81.56 1622.7,76.83 1625.49,76.83 1625.49,89.51 1622.7,89.51 
				1622.7,84.03 1617.27,84.03 1617.27,89.51 1614.48,89.51 1614.48,76.83 			"/>
			<path class="st65" d="M1641.07,83.17c0,4.03-2.86,6.66-6.84,6.66c-3.99,0-6.84-2.61-6.84-6.66s2.85-6.66,6.84-6.66
				C1638.26,76.51,1641.07,79.14,1641.07,83.17 M1634.23,87.25c2.36,0,3.94-1.7,3.94-4.08c0-2.38-1.57-4.08-3.96-4.08
				c-2.35,0-3.92,1.68-3.92,4.08C1630.29,85.55,1631.85,87.25,1634.23,87.25"/>
			<path class="st65" d="M1647.27,76.83c4.01,0,7.4,1.81,7.4,6.36c0,4.03-3.26,6.32-7.06,6.32h-4.64V76.83L1647.27,76.83
				L1647.27,76.83z M1647.3,86.93c2.49,0,4.46-1.02,4.46-3.85c0-2.52-2.01-3.67-4.28-3.67h-1.72v7.52H1647.3z"/>
			<path class="st65" d="M1664.75,77.83l-1.92,2.09c-0.45-0.57-1.34-0.84-2.02-0.84c-0.77,0-1.88,0.36-1.88,1.31
				c0,1.11,1.34,1.34,2.74,1.77c1.52,0.47,3.1,1.2,3.1,3.49c0,2.88-2.31,4.17-4.89,4.17c-1.63,0-3.06-0.46-4.26-1.59l1.99-2.19
				c0.59,0.75,1.49,1.2,2.43,1.2c0.77,0,1.93-0.34,1.93-1.33c0-1.11-1.34-1.4-2.76-1.86c-1.56-0.5-3.19-1.22-3.19-3.44
				c0-2.7,2.36-4.12,4.83-4.12C1662.28,76.51,1663.65,76.88,1664.75,77.83"/>
			<path class="st65" d="M1668.74,88.75c0,0.48-0.38,0.86-0.86,0.86s-0.86-0.38-0.86-0.86c0-0.48,0.38-0.86,0.86-0.86
				C1668.36,87.9,1668.74,88.27,1668.74,88.75"/>
			<path class="st65" d="M1673.16,77.96c0,0.45-0.34,0.81-0.8,0.81c-0.45,0-0.81-0.36-0.81-0.81c0-0.45,0.36-0.81,0.81-0.81
				C1672.83,77.15,1673.16,77.51,1673.16,77.96 M1671.82,81.23h1.07v8.27h-1.07V81.23z"/>
			<path class="st65" d="M1684.18,85.37c0,2.47-1.77,4.35-4.35,4.35c-2.54,0-4.35-1.83-4.35-4.35c0-2.51,1.79-4.35,4.35-4.35
				C1682.35,81.02,1684.18,82.84,1684.18,85.37 M1679.83,88.75c1.94,0,3.28-1.43,3.28-3.38c0-1.95-1.34-3.38-3.29-3.38
				c-1.9,0-3.26,1.43-3.26,3.38C1676.55,87.3,1677.88,88.75,1679.83,88.75"/>
			<path class="st65" d="M1540.76,96.73l5.34,12.68h-1.33l-1.38-3.36h-6.71l-1.43,3.36h-1.23l5.53-12.68H1540.76z M1537.14,104.96
				h5.82l-2.86-6.95L1537.14,104.96z"/>
			<path class="st65" d="M1551.54,96.73c2.54,0,4.12,1.2,4.12,3.35c0,2.1-1.63,3.31-3.74,3.31h-2.81v6.02h-1.18V96.73H1551.54z
				 M1551.85,102.32c1.52,0,2.63-0.77,2.63-2.24c0-1.49-1.22-2.27-2.69-2.27h-2.69v4.51H1551.85z"/>
			<rect x="1558.21" y="96.73" class="st65" width="1.18" height="12.68"/>
		</g>
	</a>
	<a xlink:href="https://docs.webmethods.io/index_files/product/index.html" >
		<g id="b2b-c_1_">
			<polygon class="st65" points="391.22,124.24 393.26,132.44 393.3,132.44 395.97,124.24 398.59,124.24 401.25,132.66 
				401.28,132.66 403.43,124.24 406.29,124.24 402.55,137.03 400.04,137.03 397.22,128.18 397.18,128.18 394.37,137.03 
				391.95,137.03 388.15,124.24 			"/>
			<polygon class="st65" points="416.35,124.24 416.35,126.84 410.48,126.84 410.48,129.22 416.02,129.22 416.02,131.83 
				410.48,131.83 410.48,134.43 416.67,134.43 416.67,137.03 407.66,137.03 407.66,124.24 			"/>
			<path class="st65" d="M423.81,124.24c2.26,0,4.57,0.56,4.57,3.25c0,1.43-0.89,2.4-2.2,2.82v0.04c1.5,0.18,2.8,1.3,2.8,3.12
				c0,2.67-2.53,3.56-4.79,3.56h-5.26v-12.79L423.81,124.24L423.81,124.24z M423.84,129.35c0.87,0,1.72-0.42,1.72-1.39
				c0-1.03-0.98-1.34-1.84-1.34h-1.97v2.73H423.84z M424.33,134.64c0.92,0,1.82-0.47,1.82-1.5c0-1.17-1.28-1.41-2.2-1.41h-2.2v2.91
				L424.33,134.64L424.33,134.64z"/>
			<polygon class="st65" points="434.9,124.24 437.84,132.58 437.88,132.58 440.84,124.24 445.08,124.24 445.08,137.03 
				442.27,137.03 442.27,127.22 442.23,127.22 438.87,137.03 436.72,137.03 433.49,127.22 433.45,127.22 433.45,137.03 
				430.63,137.03 430.63,124.24 			"/>
			<polygon class="st65" points="456.48,124.24 456.48,126.84 450.61,126.84 450.61,129.22 456.15,129.22 456.15,131.83 
				450.61,131.83 450.61,134.43 456.8,134.43 456.8,137.03 447.79,137.03 447.79,124.24 			"/>
			<polygon class="st65" points="468,124.24 468,126.73 464.35,126.73 464.35,137.03 461.54,137.03 461.54,126.73 457.89,126.73 
				457.89,124.24 			"/>
			<polygon class="st65" points="472.25,124.24 472.25,129.01 477.72,129.01 477.72,124.24 480.54,124.24 480.54,137.03 
				477.72,137.03 477.72,131.5 472.25,131.5 472.25,137.03 469.43,137.03 469.43,124.24 			"/>
			<path class="st65" d="M496.25,130.63c0,4.06-2.89,6.72-6.9,6.72c-4.02,0-6.9-2.64-6.9-6.72c0-4.08,2.87-6.72,6.9-6.72
				C493.42,123.92,496.25,126.57,496.25,130.63 M489.35,134.75c2.39,0,3.98-1.71,3.98-4.12c0-2.4-1.59-4.12-3.99-4.12
				c-2.37,0-3.95,1.7-3.95,4.12C485.38,133.04,486.95,134.75,489.35,134.75"/>
			<path class="st65" d="M502.5,124.24c4.05,0,7.46,1.82,7.46,6.41c0,4.06-3.29,6.38-7.11,6.38h-4.68v-12.79H502.5z M502.54,134.43
				c2.51,0,4.5-1.03,4.5-3.88c0-2.55-2.02-3.7-4.32-3.7h-1.73v7.58H502.54z"/>
			<path class="st65" d="M520.13,125.25l-1.93,2.11c-0.45-0.58-1.35-0.85-2.04-0.85c-0.78,0-1.9,0.36-1.9,1.32
				c0,1.12,1.35,1.36,2.76,1.79c1.53,0.47,3.12,1.21,3.12,3.52c0,2.91-2.33,4.21-4.93,4.21c-1.64,0-3.09-0.47-4.3-1.61l2-2.2
				c0.6,0.76,1.5,1.21,2.46,1.21c0.78,0,1.95-0.34,1.95-1.33c0-1.12-1.35-1.41-2.78-1.88c-1.57-0.51-3.21-1.23-3.21-3.47
				c0-2.73,2.38-4.15,4.87-4.15C517.64,123.92,519.03,124.3,520.13,125.25"/>
			<path class="st65" d="M524.16,136.27c0,0.49-0.38,0.87-0.87,0.87c-0.49,0-0.87-0.38-0.87-0.87c0-0.49,0.38-0.87,0.87-0.87
				C523.78,135.4,524.16,135.78,524.16,136.27"/>
			<path class="st65" d="M528.62,125.38c0,0.45-0.34,0.81-0.81,0.81c-0.45,0-0.81-0.36-0.81-0.81s0.36-0.81,0.81-0.81
				C528.27,124.57,528.62,124.93,528.62,125.38 M527.26,128.68h1.08v8.34h-1.08V128.68z"/>
			<path class="st65" d="M539.72,132.86c0,2.49-1.79,4.39-4.39,4.39c-2.56,0-4.39-1.84-4.39-4.39c0-2.53,1.81-4.39,4.39-4.39
				C537.88,128.47,539.72,130.31,539.72,132.86 M535.34,136.27c1.95,0,3.3-1.45,3.3-3.41c0-1.97-1.35-3.41-3.32-3.41
				c-1.92,0-3.29,1.44-3.29,3.41C532.03,134.81,533.37,136.27,535.34,136.27"/>
			<path class="st65" d="M393.72,144.31c2.65,0,4.03,1.07,4.03,3.38c0,1.34-0.83,2.37-2.29,2.65v0.04c1.75,0.11,2.85,1.44,2.85,3.14
				c0,2.35-1.72,3.58-4.24,3.58h-4.12v-12.79H393.72L393.72,144.31z M393.68,149.84c1.73,0,2.87-0.79,2.87-2.15
				c0-1.52-0.94-2.29-2.71-2.29h-2.71v4.44H393.68z M393.95,156.01c2.02,0,3.16-0.94,3.16-2.46c0-1.73-1.34-2.64-3.04-2.64h-2.94
				v5.09H393.95z"/>
			<path class="st65" d="M408.13,147.36c0,2-1.39,3.38-2.08,4.08l-4.55,4.68h6.72v0.98h-7.91v-1.26l5.36-5.67
				c0.76-0.79,1.26-1.75,1.26-2.71c0-1.43-1.05-2.38-2.55-2.38c-1.27,0-2.24,0.76-2.56,2.1l-1.26-0.13
				c0.41-1.91,1.84-2.94,3.88-2.94C406.52,144.09,408.13,145.41,408.13,147.36"/>
			<path class="st65" d="M414.49,144.31c2.65,0,4.03,1.07,4.03,3.38c0,1.34-0.83,2.37-2.29,2.65v0.04c1.75,0.11,2.85,1.44,2.85,3.14
				c0,2.35-1.72,3.58-4.24,3.58h-4.12v-12.79H414.49L414.49,144.31z M414.45,149.84c1.73,0,2.87-0.79,2.87-2.15
				c0-1.52-0.94-2.29-2.71-2.29h-2.71v4.44H414.45z M414.72,156.01c2.02,0,3.16-0.94,3.16-2.46c0-1.73-1.34-2.64-3.03-2.64h-2.94
				v5.09H414.72z"/>
		</g>
	</a>
	<a xlink:href="https://docs.webmethods.io/index_files/product/index.html" >
		<g id="wMint_1_">
			<path id="integ_1_" class="st16" d="M1696.28,606.09c0,27.66-22.42,50.08-50.08,50.08c-27.66,0-50.08-22.42-50.08-50.08
				s22.42-50.08,50.08-50.08C1673.86,556.01,1696.28,578.43,1696.28,606.09"/>
			<a xlink:href="https://docs.webmethods.io/index_files/product/index.html" >
				<circle id="wM-int-b_1_" class="st54" cx="1646.2" cy="606.09" r="58.23"/>
			</a>
			<a xlink:href="https://docs.webmethods.io/index_files/product/index.html" >
				<g id="int-d_1_">
					<path class="st6" d="M1676.24,615.76c-1.3-2.27-3.65-3.51-6.05-3.51c-1.2,0-2.4,0.32-3.47,0.92c-0.42,0.24-0.78,0.52-1.1,0.79
						l-7.07-4.06c-1.1-0.66-2.48-0.28-3.14,0.82c-0.65,1.11-0.27,2.5,0.84,3.15l7.11,4.1c-0.28,1.56-0.06,3.23,0.82,4.71
						c1.3,2.27,3.65,3.51,6.05,3.51c1.2,0,2.4-0.32,3.51-0.92C1677.02,623.38,1678.18,619.08,1676.24,615.76z"/>
					<path class="st6" d="M1648.68,626.57v-8.31c0-1.3-1.02-2.31-2.31-2.31c-1.3,0-2.32,1.01-2.32,2.31v8.17
						c-0.46,0.14-0.92,0.36-1.38,0.6c-3.32,1.94-4.47,6.19-2.54,9.56c1.3,2.26,3.65,3.51,6.04,3.51c1.2,0,2.41-0.32,3.52-0.92
						c3.32-1.94,4.47-6.19,2.53-9.56C1651.4,628.17,1650.1,627.11,1648.68,626.57z"/>
					<path class="st6" d="M1634.08,609.9l-7.24,4.15c-1.3-1.16-2.96-1.76-4.62-1.76c-1.2,0-2.4,0.33-3.5,0.93
						c-3.33,1.93-4.48,6.18-2.54,9.56c1.3,2.26,3.65,3.51,6.05,3.51c1.2,0,2.4-0.32,3.51-0.92c2.64-1.52,3.89-4.44,3.38-7.25
						l7.29-4.21c1.1-0.64,1.48-2.02,0.82-3.14C1636.58,609.62,1635.2,609.25,1634.08,609.9z"/>
					<path class="st6" d="M1656.25,597.07c-1.11,0.64-1.48,2.03-0.84,3.15c0.66,1.1,2.04,1.47,3.14,0.82l6.97-4.01
						c1.24,1.06,2.86,1.61,4.48,1.61c1.2,0,2.4-0.32,3.51-0.93c3.32-1.94,4.47-6.19,2.54-9.55c-1.3-2.27-3.65-3.51-6.04-3.51
						c-1.2,0-2.4,0.32-3.47,0.92c-2.68,1.52-3.92,4.57-3.37,7.43L1656.25,597.07z"/>
					<path class="st6" d="M1649.64,611.19c3.19-1.84,4.31-5.95,2.44-9.13c-1.84-3.19-5.95-4.3-9.14-2.45
						c-3.19,1.84-4.29,5.95-2.44,9.14C1642.35,611.93,1646.46,613.03,1649.64,611.19z"/>
					<path class="st6" d="M1658.32,584.37c-0.05-1.62-0.42-3.19-1.02-4.61c-0.65-1.44-1.57-2.78-2.72-3.92
						c-1.2-1.2-2.58-2.18-4.16-2.82c-1.52-0.65-3.19-0.92-4.89-0.92s-3.36,0.32-4.89,0.92c-1.52,0.64-2.9,1.56-4.16,2.82
						c-0.87,0.87-1.6,1.84-2.21,2.9c-0.24,0.46-0.46,0.88-0.65,1.34c-0.05,0-0.13,0-0.19,0c-1.48,0-2.91,0.28-4.2,0.82
						c-1.33,0.56-2.53,1.38-3.56,2.4c-0.88,0.88-1.62,1.9-2.12,2.96c-0.1,0-0.18,0-0.28,0c-1.06,0-2.08,0.19-3.04,0.6
						c-0.96,0.41-1.81,1.01-2.54,1.75c-0.74,0.74-1.34,1.62-1.7,2.54c-0.42,0.96-0.6,1.98-0.6,3.04c0,1.06,0.19,2.08,0.6,3.04
						c0.42,0.97,0.96,1.8,1.7,2.54c0.74,0.74,1.58,1.28,2.5,1.7c0.92,0.42,1.94,0.6,2.94,0.6h0.05h10.52c1.3,0,2.31-1.02,2.31-2.3
						c0-1.3-1.01-2.31-2.31-2.31h-10.52c-0.46,0-0.88-0.1-1.19-0.24c-0.38-0.14-0.7-0.36-1.02-0.69c-0.37-0.38-0.6-0.7-0.74-1.06
						c-0.14-0.37-0.23-0.79-0.23-1.26c0-0.5,0.09-0.87,0.23-1.24c0.14-0.36,0.37-0.69,0.74-1.06l0,0c0.36-0.36,0.69-0.6,1.06-0.74
						c0.36-0.14,0.74-0.22,1.24-0.22c0.42,0,0.74,0.04,1.06,0.14c0.6,0.19,1.3,0.13,1.85-0.19c0.56-0.32,0.98-0.82,1.12-1.43
						c0.27-1.06,0.78-1.94,1.66-2.86l0,0c0.65-0.65,1.34-1.1,2.07-1.43c0.74-0.33,1.53-0.46,2.46-0.46c0.51,0,0.93,0.05,1.39,0.13
						c1.24,0.28,2.45-0.54,2.72-1.79c0.14-0.73,0.41-1.43,0.78-2.07c0.36-0.65,0.82-1.3,1.43-1.9c0.84-0.82,1.72-1.42,2.64-1.8
						c0.92-0.36,1.98-0.6,3.13-0.6c1.16,0,2.22,0.19,3.14,0.6c0.92,0.38,1.81,0.98,2.63,1.8c0.79,0.79,1.34,1.62,1.76,2.5
						c0.37,0.88,0.6,1.84,0.64,2.95c0.06,1.3,1.12,2.26,2.4,2.22C1657.45,586.73,1658.37,585.67,1658.32,584.37z"/>
				</g>
			</a>
		</g>
	</a>
	<path class="st6" d="M290.11,364.01c0,1.14-0.93,2.07-2.07,2.07c-1.14,0-2.07-0.93-2.07-2.07c0-1.15,0.93-2.07,2.07-2.07
		C289.18,361.94,290.11,362.87,290.11,364.01"/>
	<path class="st4" d="M486.99,387.63h-6.74c-0.51,0-0.92-0.41-0.92-0.92c0-0.51,0.41-0.92,0.92-0.92h6.74
		c0.51,0,0.92,0.41,0.92,0.92C487.91,387.22,487.5,387.63,486.99,387.63"/>
	<path class="st4" d="M483.62,391c-0.51,0-0.92-0.41-0.92-0.92v-6.74c0-0.51,0.41-0.92,0.92-0.92s0.92,0.41,0.92,0.92v6.74
		C484.54,390.59,484.13,391,483.62,391"/>
	<path class="st17" d="M354.83,382.46h-5.76l-2.88-4.99l2.88-4.99h5.76l2.88,4.99L354.83,382.46z M349.86,381.08h4.17l2.09-3.61
		l-2.09-3.61h-4.17l-2.09,3.61L349.86,381.08z"/>
</g>
</svg>
