<?xml version="1.0" encoding="utf-8"?>
<!-- Generator: Adobe Illustrator 15.0.0, SVG Export Plug-In . SVG Version: 6.00 Build 0)  -->
<!DOCTYPE svg PUBLIC "-//W3C//DTD SVG 1.1//EN" "http://www.w3.org/Graphics/SVG/1.1/DTD/svg11.dtd">
<svg version="1.1" id="Capa_1" xmlns="http://www.w3.org/2000/svg" xmlns:xlink="http://www.w3.org/1999/xlink" x="0px" y="0px"
	 width="529.332px" height="46px" viewBox="0 0 529.332 46" enable-background="new 0 0 529.332 46" xml:space="preserve">
<polygon fill="#305AA6" points="9.799,3.906 15.474,26.719 15.576,26.719 23.014,3.906 30.301,3.906 37.687,27.322 37.786,27.322 
	43.767,3.906 51.706,3.906 41.303,39.483 34.318,39.483 26.48,14.86 26.379,14.86 18.542,39.483 11.807,39.483 1.256,3.906 "/>
<polygon fill="#305AA6" points="79.703,3.906 79.703,11.142 63.37,11.142 63.37,17.774 78.798,17.774 78.798,25.01 63.37,25.01 
	63.37,32.247 80.606,32.247 80.606,39.483 55.532,39.483 55.532,3.906 "/>
<path fill="#305AA6" d="M100.458,3.906c6.28,0,12.714,1.558,12.714,9.044c0,3.971-2.463,6.683-6.131,7.839v0.101
	c4.172,0.502,7.787,3.618,7.787,8.693c0,7.437-7.034,9.899-13.315,9.899H86.89V3.906H100.458z M100.558,18.127
	c2.414,0,4.773-1.156,4.773-3.87c0-2.865-2.712-3.718-5.125-3.718H94.73v7.587H100.558z M101.916,32.849
	c2.562,0,5.073-1.306,5.073-4.17c0-3.267-3.565-3.919-6.128-3.919H94.73v8.089H101.916z"/>
<polygon fill="#305AA6" points="131.315,3.906 139.507,27.121 139.605,27.121 147.847,3.906 159.657,3.906 159.657,39.483 
	151.818,39.483 151.818,12.197 151.715,12.197 142.37,39.483 136.391,39.483 127.395,12.197 127.294,12.197 127.294,39.483 
	119.456,39.483 119.456,3.906 "/>
<polygon fill="#305AA6" points="191.369,3.906 191.369,11.142 175.037,11.142 175.037,17.774 190.464,17.774 190.464,25.01 
	175.037,25.01 175.037,32.247 192.273,32.247 192.273,39.483 167.199,39.483 167.199,3.906 "/>
<polygon fill="#305AA6" points="223.431,3.906 223.431,10.84 213.281,10.84 213.281,39.483 205.441,39.483 205.441,10.84 
	195.292,10.84 195.292,3.906 "/>
<polygon fill="#305AA6" points="235.243,3.906 235.243,17.172 250.47,17.172 250.47,3.906 258.309,3.906 258.309,39.483 
	250.47,39.483 250.47,24.107 235.243,24.107 235.243,39.483 227.404,39.483 227.404,3.906 "/>
<path fill="#305AA6" d="M302.029,21.695c0,11.306-8.039,18.692-19.195,18.692c-11.206,0-19.195-7.336-19.195-18.692
	c0-11.358,7.989-18.693,19.195-18.693C294.142,3.001,302.029,10.387,302.029,21.695 M282.834,33.15
	c6.634,0,11.056-4.773,11.056-11.456c0-6.684-4.421-11.457-11.105-11.457c-6.583,0-11.005,4.722-11.005,11.457
	C271.779,28.377,276.152,33.15,282.834,33.15"/>
<path fill="#305AA6" d="M319.422,3.906c11.255,0,20.752,5.075,20.752,17.839c0,11.306-9.146,17.738-19.798,17.738h-13.015V3.906
	H319.422z M319.521,32.247c6.984,0,12.512-2.864,12.512-10.804c0-7.083-5.627-10.301-12.009-10.301H315.2v21.105H319.521z"/>
<path fill="#305AA6" d="M368.467,6.719l-5.377,5.879c-1.255-1.608-3.768-2.36-5.676-2.36c-2.163,0-5.275,1.004-5.275,3.665
	c0,3.118,3.767,3.771,7.687,4.977c4.271,1.306,8.694,3.367,8.694,9.799c0,8.09-6.483,11.708-13.718,11.708
	c-4.575,0-8.593-1.306-11.96-4.472l5.579-6.132c1.658,2.111,4.17,3.367,6.832,3.367c2.163,0,5.429-0.954,5.429-3.718
	c0-3.114-3.769-3.919-7.739-5.226c-4.372-1.407-8.944-3.417-8.944-9.648c0-7.586,6.634-11.556,13.567-11.556
	C361.534,3.001,365.403,4.057,368.467,6.719"/>
<path fill="#305AA6" d="M379.676,37.372c0,1.357-1.055,2.412-2.41,2.412c-1.357,0-2.412-1.055-2.412-2.412s1.055-2.414,2.412-2.414
	C378.621,34.958,379.676,36.015,379.676,37.372"/>
<path fill="#305AA6" d="M392.091,7.071c0,1.257-0.954,2.262-2.262,2.262c-1.255,0-2.263-1.004-2.263-2.262
	c0-1.255,1.008-2.26,2.263-2.26C391.137,4.811,392.091,5.815,392.091,7.071 M388.323,16.268h3.016v23.215h-3.016V16.268z"/>
<path fill="#305AA6" d="M422.996,27.875c0,6.935-4.976,12.211-12.213,12.211c-7.133,0-12.208-5.127-12.208-12.211
	c0-7.035,5.025-12.211,12.208-12.211C417.87,15.664,422.996,20.79,422.996,27.875 M410.783,37.372c5.43,0,9.199-4.02,9.199-9.498
	c0-5.477-3.769-9.497-9.247-9.497c-5.328,0-9.144,4.02-9.144,9.497C401.59,33.302,405.309,37.372,410.783,37.372"/>
<g>
	<path d="M460.589,4.58l15.071,35.807h-3.742l-3.893-9.507h-18.967l-4.047,9.507h-3.488L457.149,4.58H460.589z M450.372,27.845
		h16.438l-8.092-19.623L450.372,27.845z"/>
	<path d="M491.04,4.58c7.181,0,11.631,3.388,11.631,9.458c0,5.917-4.601,9.356-10.569,9.356h-7.941v16.992h-3.337V4.58H491.04z
		 M491.898,20.359c4.3,0,7.435-2.175,7.435-6.321c0-4.198-3.439-6.423-7.585-6.423h-7.588v12.745H491.898z"/>
	<rect x="509.856" y="4.579" width="3.337" height="35.808"/>
</g>
</svg>
