<?xml version="1.0" encoding="UTF-8" standalone="no"?>
<!-- Generator: Adobe Illustrator 15.0.0, SVG Export Plug-In . SVG Version: 6.00 Build 0)  -->

<svg
   xmlns:dc="http://purl.org/dc/elements/1.1/"
   xmlns:cc="http://creativecommons.org/ns#"
   xmlns:rdf="http://www.w3.org/1999/02/22-rdf-syntax-ns#"
   xmlns:svg="http://www.w3.org/2000/svg"
   xmlns="http://www.w3.org/2000/svg"
   xmlns:sodipodi="http://sodipodi.sourceforge.net/DTD/sodipodi-0.dtd"
   xmlns:inkscape="http://www.inkscape.org/namespaces/inkscape"
   version="1.1"
   id="Capa_1"
   x="0px"
   y="0px"
   width="607.33197"
   height="60"
   viewBox="0 0 607.332 60"
   enable-background="new 0 0 529.332 46"
   xml:space="preserve"
   sodipodi:docname="webmethods.io_b2b.svg"
   inkscape:version="0.92.4 (5da689c313, 2019-01-14)"><metadata
   id="metadata139"><rdf:RDF><cc:Work
       rdf:about=""><dc:format>image/svg+xml</dc:format><dc:type
         rdf:resource="http://purl.org/dc/dcmitype/StillImage" /><dc:title></dc:title></cc:Work></rdf:RDF></metadata><defs
   id="defs137" /><sodipodi:namedview
   pagecolor="#ffffff"
   bordercolor="#666666"
   borderopacity="1"
   objecttolerance="10"
   gridtolerance="10"
   guidetolerance="10"
   inkscape:pageopacity="0"
   inkscape:pageshadow="2"
   inkscape:window-width="1920"
   inkscape:window-height="1019"
   id="namedview135"
   showgrid="false"
   inkscape:zoom="1.2808597"
   inkscape:cx="325.56258"
   inkscape:cy="23"
   inkscape:window-x="-9"
   inkscape:window-y="-9"
   inkscape:window-maximized="1"
   inkscape:current-layer="Capa_1" />
<g
   id="g132"
   transform="translate(76,10)">
	<polygon
   points="9.799,3.906 15.474,26.719 15.576,26.719 23.014,3.906 30.301,3.906 37.687,27.322 37.786,27.322 43.767,3.906 51.706,3.906 41.303,39.483 34.318,39.483 26.48,14.86 26.379,14.86 18.542,39.483 11.807,39.483 1.256,3.906 "
   id="polygon98"
   style="fill:#305aa6" />
	<polygon
   points="79.703,3.906 79.703,11.142 63.37,11.142 63.37,17.774 78.798,17.774 78.798,25.01 63.37,25.01 63.37,32.247 80.606,32.247 80.606,39.483 55.532,39.483 55.532,3.906 "
   id="polygon100"
   style="fill:#305aa6" />
	<path
   d="m 100.458,3.906 c 6.28,0 12.714,1.558 12.714,9.044 0,3.971 -2.463,6.683 -6.131,7.839 v 0.101 c 4.172,0.502 7.787,3.618 7.787,8.693 0,7.437 -7.034,9.899 -13.315,9.899 H 86.89 V 3.906 Z m 0.1,14.221 c 2.414,0 4.773,-1.156 4.773,-3.87 0,-2.865 -2.712,-3.718 -5.125,-3.718 H 94.73 v 7.587 h 5.828 z m 1.358,14.722 c 2.562,0 5.073,-1.306 5.073,-4.17 0,-3.267 -3.565,-3.919 -6.128,-3.919 H 94.73 v 8.089 z"
   id="path102"
   inkscape:connector-curvature="0"
   style="fill:#305aa6" />
	<polygon
   points="131.315,3.906 139.507,27.121 139.605,27.121 147.847,3.906 159.657,3.906 159.657,39.483 151.818,39.483 151.818,12.197 151.715,12.197 142.37,39.483 136.391,39.483 127.395,12.197 127.294,12.197 127.294,39.483 119.456,39.483 119.456,3.906 "
   id="polygon104"
   style="fill:#305aa6" />
	<polygon
   points="191.369,3.906 191.369,11.142 175.037,11.142 175.037,17.774 190.464,17.774 190.464,25.01 175.037,25.01 175.037,32.247 192.273,32.247 192.273,39.483 167.199,39.483 167.199,3.906 "
   id="polygon106"
   style="fill:#305aa6" />
	<polygon
   points="223.431,3.906 223.431,10.84 213.281,10.84 213.281,39.483 205.441,39.483 205.441,10.84 195.292,10.84 195.292,3.906 "
   id="polygon108"
   style="fill:#305aa6" />
	<polygon
   points="235.243,3.906 235.243,17.172 250.47,17.172 250.47,3.906 258.309,3.906 258.309,39.483 250.47,39.483 250.47,24.107 235.243,24.107 235.243,39.483 227.404,39.483 227.404,3.906 "
   id="polygon110"
   style="fill:#305aa6" />
	<path
   d="m 302.029,21.695 c 0,11.306 -8.039,18.692 -19.195,18.692 -11.206,0 -19.195,-7.336 -19.195,-18.692 0,-11.358 7.989,-18.693 19.195,-18.693 11.308,-10e-4 19.195,7.385 19.195,18.693 M 282.834,33.15 c 6.634,0 11.056,-4.773 11.056,-11.456 0,-6.684 -4.421,-11.457 -11.105,-11.457 -6.583,0 -11.005,4.722 -11.005,11.457 -10e-4,6.683 4.372,11.456 11.054,11.456"
   id="path112"
   inkscape:connector-curvature="0"
   style="fill:#305aa6" />
	<path
   d="m 319.422,3.906 c 11.255,0 20.752,5.075 20.752,17.839 0,11.306 -9.146,17.738 -19.798,17.738 H 307.361 V 3.906 Z m 0.099,28.341 c 6.984,0 12.512,-2.864 12.512,-10.804 0,-7.083 -5.627,-10.301 -12.009,-10.301 H 315.2 v 21.105 z"
   id="path114"
   inkscape:connector-curvature="0"
   style="fill:#305aa6" />
	<path
   d="m 368.467,6.719 -5.377,5.879 c -1.255,-1.608 -3.768,-2.36 -5.676,-2.36 -2.163,0 -5.275,1.004 -5.275,3.665 0,3.118 3.767,3.771 7.687,4.977 4.271,1.306 8.694,3.367 8.694,9.799 0,8.09 -6.483,11.708 -13.718,11.708 -4.575,0 -8.593,-1.306 -11.96,-4.472 l 5.579,-6.132 c 1.658,2.111 4.17,3.367 6.832,3.367 2.163,0 5.429,-0.954 5.429,-3.718 0,-3.114 -3.769,-3.919 -7.739,-5.226 -4.372,-1.407 -8.944,-3.417 -8.944,-9.648 0,-7.586 6.634,-11.556 13.567,-11.556 3.968,-10e-4 7.837,1.055 10.901,3.717"
   id="path116"
   inkscape:connector-curvature="0"
   style="fill:#305aa6" />
	<path
   d="m 379.676,37.372 c 0,1.357 -1.055,2.412 -2.41,2.412 -1.357,0 -2.412,-1.055 -2.412,-2.412 0,-1.357 1.055,-2.414 2.412,-2.414 1.355,0 2.41,1.057 2.41,2.414"
   id="path118"
   inkscape:connector-curvature="0"
   style="fill:#305aa6" />
	<path
   d="m 392.091,7.071 c 0,1.257 -0.954,2.262 -2.262,2.262 -1.255,0 -2.263,-1.004 -2.263,-2.262 0,-1.255 1.008,-2.26 2.263,-2.26 1.308,0 2.262,1.004 2.262,2.26 m -3.768,9.197 h 3.016 v 23.215 h -3.016 z"
   id="path120"
   inkscape:connector-curvature="0"
   style="fill:#305aa6" />
	<path
   d="m 422.996,27.875 c 0,6.935 -4.976,12.211 -12.213,12.211 -7.133,0 -12.208,-5.127 -12.208,-12.211 0,-7.035 5.025,-12.211 12.208,-12.211 7.087,0 12.213,5.126 12.213,12.211 m -12.213,9.497 c 5.43,0 9.199,-4.02 9.199,-9.498 0,-5.477 -3.769,-9.497 -9.247,-9.497 -5.328,0 -9.144,4.02 -9.144,9.497 -0.001,5.428 3.718,9.498 9.192,9.498"
   id="path122"
   inkscape:connector-curvature="0"
   style="fill:#305aa6" />
	<g
   id="g130">
		<path
   d="m 455.185,4.207 c 7.387,0 11.207,2.964 11.207,9.396 0,3.719 -2.314,6.583 -6.385,7.386 v 0.101 c 4.876,0.302 7.94,4.021 7.94,8.744 0,6.531 -4.774,9.949 -11.809,9.949 H 444.681 V 4.207 Z m -0.101,15.376 c 4.823,0 7.99,-2.211 7.99,-5.979 0,-4.221 -2.613,-6.381 -7.539,-6.381 H 448 v 12.36 z m 0.754,17.186 c 5.629,0 8.794,-2.614 8.794,-6.834 0,-4.823 -3.719,-7.335 -8.443,-7.335 H 448 v 14.17 h 7.838 z"
   id="path124"
   inkscape:connector-curvature="0" />
		<path
   d="m 495.288,12.7 c 0,5.577 -3.869,9.395 -5.778,11.356 l -12.663,13.015 h 18.692 v 2.713 h -22.01 v -3.517 l 14.924,-15.779 c 2.111,-2.211 3.518,-4.875 3.518,-7.538 0,-3.969 -2.914,-6.633 -7.086,-6.633 -3.518,0 -6.23,2.11 -7.135,5.831 l -3.519,-0.353 c 1.156,-5.326 5.127,-8.19 10.804,-8.19 5.78,-10e-4 10.253,3.668 10.253,9.095"
   id="path126"
   inkscape:connector-curvature="0" />
		<path
   d="m 512.979,4.207 c 7.389,0 11.206,2.964 11.206,9.396 0,3.719 -2.312,6.583 -6.382,7.386 v 0.101 c 4.874,0.302 7.941,4.021 7.941,8.744 0,6.531 -4.774,9.949 -11.809,9.949 H 502.478 V 4.207 Z m -0.101,15.376 c 4.825,0 7.99,-2.211 7.99,-5.979 0,-4.221 -2.613,-6.381 -7.537,-6.381 h -7.539 v 12.36 z m 0.755,17.186 c 5.625,0 8.792,-2.614 8.792,-6.834 0,-4.823 -3.717,-7.335 -8.441,-7.335 h -8.191 v 14.17 h 7.84 z"
   id="path128"
   inkscape:connector-curvature="0" />
	</g>
</g>
<path
   inkscape:connector-curvature="0"
   style="fill:#14629f;stroke-width:0.67048466"
   d="m 53.523332,23.806846 c -0.549127,0 -1.084174,0.06168 -1.600447,0.174997 L 44.589794,11.27884 C 44.299475,10.776647 43.764428,10.467554 43.184459,10.467554 H 33.147303 V 6.1771226 l -5.911663,5.9130044 5.911663,5.913004 V 13.7127 h 9.100488 l 6.725633,11.647659 c -1.771422,1.366448 -2.913928,3.505965 -2.913928,5.909653 0,2.508282 1.24442,4.729598 3.147256,6.083978 L 43.184459,47.78539 22.107773,11.27884 c -0.289649,-0.501522 -0.824025,-0.810615 -1.403994,-0.811286 h -0.0014 c -0.578629,0 -1.113676,0.308423 -1.403996,0.809275 l -7.324992,12.642659 c -0.421065,-0.07309 -0.850175,-0.112642 -1.284649,-0.112642 -4.116105,0 -7.463835,3.348401 -7.463835,7.463835 0,4.116106 3.34773,7.463836 7.463835,7.463836 0.339936,0 0.673837,-0.02481 1.001705,-0.06906 l 7.607318,13.176366 c 0.28965,0.501522 0.825366,0.811286 1.405336,0.811286 h 10.031121 v 4.290431 l 5.911664,-5.913004 -5.911664,-5.913004 v 4.290432 H 21.639775 L 14.772001,37.512897 c 2.03358,-1.334266 3.379913,-3.633356 3.379913,-6.242883 0,-2.460679 -1.201508,-4.714848 -3.155971,-6.095377 l 5.704483,-9.844055 21.078696,36.510571 c 0.29032,0.501524 0.825367,0.811287 1.405337,0.811287 0.579969,0 1.115016,-0.309763 1.405335,-0.811287 l 7.634809,-13.223297 c 0.421735,0.07375 0.855538,0.115323 1.299399,0.115323 4.116106,0 7.463836,-3.34773 7.463836,-7.463835 -6.71e-4,-4.114094 -3.348401,-7.462495 -7.464506,-7.462495 M 10.688749,35.488703 c -2.326582,0 -4.218689,-1.892108 -4.218689,-4.218689 0,-2.325911 1.892107,-4.21869 4.218689,-4.21869 0.572593,0 1.127084,0.112642 1.64738,0.333232 1.561559,0.663779 2.571309,2.189132 2.571309,3.885458 0,2.326581 -1.893448,4.218689 -4.218689,4.218689"
   id="path150" /></svg>