<?xml version="1.0" encoding="UTF-8" standalone="no"?>
<!-- Generator: Adobe Illustrator 15.0.0, SVG Export Plug-In . SVG Version: 6.00 Build 0)  -->

<svg
   xmlns:dc="http://purl.org/dc/elements/1.1/"
   xmlns:cc="http://creativecommons.org/ns#"
   xmlns:rdf="http://www.w3.org/1999/02/22-rdf-syntax-ns#"
   xmlns:svg="http://www.w3.org/2000/svg"
   xmlns="http://www.w3.org/2000/svg"
   xmlns:sodipodi="http://sodipodi.sourceforge.net/DTD/sodipodi-0.dtd"
   xmlns:inkscape="http://www.inkscape.org/namespaces/inkscape"
   version="1.1"
   id="Capa_1"
   x="0px"
   y="0px"
   width="600.33197"
   height="60"
   viewBox="0 0 600.33201 60"
   enable-background="new 0 0 529.332 46"
   xml:space="preserve"
   sodipodi:docname="webmethods.io_api.svg"
   inkscape:version="0.92.4 (5da689c313, 2019-01-14)"><metadata
   id="metadata4196"><rdf:RDF><cc:Work
       rdf:about=""><dc:format>image/svg+xml</dc:format><dc:type
         rdf:resource="http://purl.org/dc/dcmitype/StillImage" /><dc:title></dc:title></cc:Work></rdf:RDF></metadata><defs
   id="defs4194" /><sodipodi:namedview
   pagecolor="#ffffff"
   bordercolor="#666666"
   borderopacity="1"
   objecttolerance="10"
   gridtolerance="10"
   guidetolerance="10"
   inkscape:pageopacity="0"
   inkscape:pageshadow="2"
   inkscape:window-width="1920"
   inkscape:window-height="1019"
   id="namedview4192"
   showgrid="false"
   inkscape:zoom="0.90570459"
   inkscape:cx="325.56259"
   inkscape:cy="23"
   inkscape:window-x="-9"
   inkscape:window-y="-9"
   inkscape:window-maximized="1"
   inkscape:current-layer="Capa_1" />
<polygon
   points="1.256,3.906 9.799,3.906 15.474,26.719 15.576,26.719 23.014,3.906 30.301,3.906 37.687,27.322 37.786,27.322 43.767,3.906 51.706,3.906 41.303,39.483 34.318,39.483 26.48,14.86 26.379,14.86 18.542,39.483 11.807,39.483 "
   id="polygon4157"
   style="fill:#305aa6"
   transform="translate(78,10)" />
<polygon
   points="63.37,17.774 78.798,17.774 78.798,25.01 63.37,25.01 63.37,32.247 80.606,32.247 80.606,39.483 55.532,39.483 55.532,3.906 79.703,3.906 79.703,11.142 63.37,11.142 "
   id="polygon4159"
   style="fill:#305aa6"
   transform="translate(78,10)" />
<path
   d="m 178.458,13.906 c 6.28,0 12.714,1.558 12.714,9.044 0,3.971 -2.463,6.683 -6.131,7.839 v 0.101 c 4.172,0.502 7.787,3.618 7.787,8.693 0,7.437 -7.034,9.899 -13.315,9.899 H 164.89 V 13.906 Z m 0.1,14.221 c 2.414,0 4.773,-1.156 4.773,-3.87 0,-2.865 -2.712,-3.718 -5.125,-3.718 h -5.476 v 7.587 h 5.828 z m 1.358,14.722 c 2.562,0 5.073,-1.306 5.073,-4.17 0,-3.267 -3.565,-3.919 -6.128,-3.919 h -6.131 v 8.089 z"
   id="path4161"
   inkscape:connector-curvature="0"
   style="fill:#305aa6" />
<polygon
   points="119.456,3.906 131.315,3.906 139.507,27.121 139.605,27.121 147.847,3.906 159.657,3.906 159.657,39.483 151.818,39.483 151.818,12.197 151.715,12.197 142.37,39.483 136.391,39.483 127.395,12.197 127.294,12.197 127.294,39.483 119.456,39.483 "
   id="polygon4163"
   style="fill:#305aa6"
   transform="translate(78,10)" />
<polygon
   points="175.037,17.774 190.464,17.774 190.464,25.01 175.037,25.01 175.037,32.247 192.273,32.247 192.273,39.483 167.199,39.483 167.199,3.906 191.369,3.906 191.369,11.142 175.037,11.142 "
   id="polygon4165"
   style="fill:#305aa6"
   transform="translate(78,10)" />
<polygon
   points="195.292,3.906 223.431,3.906 223.431,10.84 213.281,10.84 213.281,39.483 205.441,39.483 205.441,10.84 195.292,10.84 "
   id="polygon4167"
   style="fill:#305aa6"
   transform="translate(78,10)" />
<polygon
   points="250.47,3.906 258.309,3.906 258.309,39.483 250.47,39.483 250.47,24.107 235.243,24.107 235.243,39.483 227.404,39.483 227.404,3.906 235.243,3.906 235.243,17.172 250.47,17.172 "
   id="polygon4169"
   style="fill:#305aa6"
   transform="translate(78,10)" />
<path
   d="m 380.029,31.695 c 0,11.306 -8.039,18.692 -19.195,18.692 -11.206,0 -19.195,-7.336 -19.195,-18.692 0,-11.358 7.989,-18.693 19.195,-18.693 11.308,-0.001 19.195,7.385 19.195,18.693 M 360.834,43.15 c 6.634,0 11.056,-4.773 11.056,-11.456 0,-6.684 -4.421,-11.457 -11.105,-11.457 -6.583,0 -11.005,4.722 -11.005,11.457 -10e-4,6.683 4.372,11.456 11.054,11.456"
   id="path4171"
   inkscape:connector-curvature="0"
   style="fill:#305aa6" />
<path
   d="m 397.422,13.906 c 11.255,0 20.752,5.075 20.752,17.839 0,11.306 -9.146,17.738 -19.798,17.738 H 385.361 V 13.906 Z m 0.099,28.341 c 6.984,0 12.512,-2.864 12.512,-10.804 0,-7.083 -5.627,-10.301 -12.009,-10.301 H 393.2 v 21.105 z"
   id="path4173"
   inkscape:connector-curvature="0"
   style="fill:#305aa6" />
<path
   d="m 446.467,16.719 -5.377,5.879 c -1.255,-1.608 -3.768,-2.36 -5.676,-2.36 -2.163,0 -5.275,1.004 -5.275,3.665 0,3.118 3.767,3.771 7.687,4.977 4.271,1.306 8.694,3.367 8.694,9.799 0,8.09 -6.483,11.708 -13.718,11.708 -4.575,0 -8.593,-1.306 -11.96,-4.472 l 5.579,-6.132 c 1.658,2.111 4.17,3.367 6.832,3.367 2.163,0 5.429,-0.954 5.429,-3.718 0,-3.114 -3.769,-3.919 -7.739,-5.226 -4.372,-1.407 -8.944,-3.417 -8.944,-9.648 0,-7.586 6.634,-11.556 13.567,-11.556 3.968,-0.001 7.837,1.055 10.901,3.717"
   id="path4175"
   inkscape:connector-curvature="0"
   style="fill:#305aa6" />
<path
   d="m 457.676,47.372 c 0,1.357 -1.055,2.412 -2.41,2.412 -1.357,0 -2.412,-1.055 -2.412,-2.412 0,-1.357 1.055,-2.414 2.412,-2.414 1.355,0 2.41,1.057 2.41,2.414"
   id="path4177"
   inkscape:connector-curvature="0"
   style="fill:#305aa6" />
<path
   d="m 470.091,17.071 c 0,1.257 -0.954,2.262 -2.262,2.262 -1.255,0 -2.263,-1.004 -2.263,-2.262 0,-1.255 1.008,-2.26 2.263,-2.26 1.308,0 2.262,1.004 2.262,2.26 m -3.768,9.197 h 3.016 v 23.215 h -3.016 z"
   id="path4179"
   inkscape:connector-curvature="0"
   style="fill:#305aa6" />
<path
   d="m 500.996,37.875 c 0,6.935 -4.976,12.211 -12.213,12.211 -7.133,0 -12.208,-5.127 -12.208,-12.211 0,-7.035 5.025,-12.211 12.208,-12.211 7.087,0 12.213,5.126 12.213,12.211 m -12.213,9.497 c 5.43,0 9.199,-4.02 9.199,-9.498 0,-5.477 -3.769,-9.497 -9.247,-9.497 -5.328,0 -9.144,4.02 -9.144,9.497 -0.001,5.428 3.718,9.498 9.192,9.498"
   id="path4181"
   inkscape:connector-curvature="0"
   style="fill:#305aa6" />
<g
   id="g4189"
   transform="translate(78,10)">
	<path
   d="m 460.589,4.58 15.071,35.807 h -3.742 l -3.893,-9.507 h -18.967 l -4.047,9.507 h -3.488 L 457.149,4.58 Z M 450.372,27.845 H 466.81 L 458.718,8.222 Z"
   id="path4183"
   inkscape:connector-curvature="0" />
	<path
   d="m 491.04,4.58 c 7.181,0 11.631,3.388 11.631,9.458 0,5.917 -4.601,9.356 -10.569,9.356 h -7.941 v 16.992 h -3.337 V 4.58 Z m 0.858,15.779 c 4.3,0 7.435,-2.175 7.435,-6.321 0,-4.198 -3.439,-6.423 -7.585,-6.423 H 484.16 V 20.36 h 7.738 z"
   id="path4185"
   inkscape:connector-curvature="0" />
	<rect
   x="509.85599"
   y="4.579"
   width="3.3369999"
   height="35.807999"
   id="rect4187" />
</g>
<path
   inkscape:connector-curvature="0"
   style="fill:#14629f;stroke-width:0.60733652"
   d="m 56.957568,27.038831 v 0 c -0.46522,0 -0.914042,0.06314 -1.343429,0.176132 l -5.277147,-9.140414 c 0.985707,-0.960197 1.600332,-2.299984 1.600332,-3.784322 0,-2.918857 -2.366183,-5.2850373 -5.285043,-5.2850373 -0.365008,0 -0.720908,0.036995 -1.065268,0.1069147 -1.203741,0.2465819 -2.259292,0.9024976 -3.012996,1.8159336 -0.108111,0.130579 -0.209532,0.266017 -0.304276,0.406917 -0.190096,0.281197 -0.35347,0.581828 -0.487691,0.898256 -0.267228,0.632239 -0.415419,1.327641 -0.415419,2.057041 0,0.730028 0.147583,1.424813 0.415419,2.057052 0.134221,0.315812 0.296988,0.616443 0.487691,0.897639 0.09474,0.140913 0.19617,0.276338 0.304276,0.406917 0.753704,0.913436 1.809255,1.569364 3.012996,1.815946 0.34436,0.07041 0.70026,0.107532 1.065268,0.107532 0.258118,0 0.509556,-0.02491 0.757957,-0.06079 l 5.460562,9.459259 c -0.42878,0.522315 -0.759171,1.127832 -0.963842,1.789223 h -5.766661 c -0.751883,-4.779738 -4.898777,-8.447454 -9.886831,-8.447454 -4.988055,0 -9.134949,3.667716 -9.886225,8.447454 H 20.253792 C 20.151157,30.428993 20.016931,30.107706 19.85295,29.805262 19.77156,29.655249 19.682897,29.510094 19.588152,29.369798 19.406557,29.101352 19.199456,28.851737 18.973527,28.62216 l 5.326948,-9.226649 c 0.434853,0.115424 0.889748,0.180979 1.361042,0.180979 2.919466,0 5.285042,-2.366181 5.285042,-5.285642 0,-2.919472 -2.366183,-5.2850491 -5.285042,-5.2850491 -0.54721,0 -1.075593,0.083238 -1.571787,0.237469 -0.165196,0.051669 -0.327355,0.1111074 -0.48587,0.1779568 -0.316422,0.1336124 -0.616446,0.296981 -0.898251,0.4870844 -0.281196,0.1894869 -0.542958,0.4063009 -0.781641,0.6449909 -0.956555,0.956547 -1.548101,2.277504 -1.548101,3.737548 0,1.265083 0.445177,2.425089 1.186128,3.334887 L 16.081387,27.1184 c -0.285439,-0.04797 -0.576969,-0.07831 -0.876996,-0.07831 -2.918857,0 -5.285037,2.366181 -5.285037,5.285037 0,2.919473 2.36618,5.285653 5.285037,5.285653 0.123907,0 0.244757,-0.0111 0.366839,-0.01887 l 5.707747,9.886831 c -0.570289,0.844811 -0.90311,1.860882 -0.90311,2.955913 0,1.460032 0.591546,2.781594 1.548101,3.737549 0.239291,0.239898 0.500445,0.455503 0.781641,0.64499 0.281805,0.190695 0.581829,0.353472 0.898251,0.487689 0.158515,0.06622 0.320067,0.12572 0.48587,0.177944 0.496194,0.154268 1.024577,0.237469 1.571787,0.237469 2.919466,0 5.285042,-2.36618 5.285042,-5.285641 0,-2.918252 -2.366183,-5.284445 -5.285042,-5.284445 -0.54721,0 -1.075593,0.08324 -1.571787,0.237469 -0.07288,0.02244 -0.142116,0.05229 -0.213783,0.07831 L 18.61702,36.357153 c 0.111749,-0.0936 0.221071,-0.190708 0.324318,-0.29396 0.23929,-0.239898 0.455502,-0.50166 0.645599,-0.782857 0.09414,-0.13968 0.183415,-0.286055 0.264798,-0.435452 0.142117,-0.262379 0.261762,-0.538717 0.358936,-0.824156 h 6.178434 c 0.807152,4.714147 4.921249,8.31383 9.862538,8.31383 4.941291,0 9.055388,-3.600299 9.863146,-8.31383 h 5.838326 c 0.260547,0.768886 0.689327,1.460033 1.249291,2.023647 l -5.341524,9.250942 c -0.389303,-0.09113 -0.793183,-0.144539 -1.210422,-0.144539 -0.36501,0 -0.720908,0.03699 -1.065269,0.106915 -1.20374,0.24657 -2.259291,0.902498 -3.012996,1.815934 -0.108111,0.130579 -0.209531,0.26662 -0.304276,0.406917 -0.190096,0.281196 -0.353469,0.582432 -0.487691,0.898243 -0.267228,0.632239 -0.415418,1.328862 -0.415418,2.057053 0,0.730633 0.147583,1.426022 0.415418,2.058261 0.134222,0.315824 0.296988,0.615838 0.487691,0.898256 0.09474,0.139692 0.19617,0.276338 0.304276,0.406917 0.753705,0.913436 1.809256,1.569351 3.012996,1.815933 0.344361,0.0698 0.700259,0.106915 1.065269,0.106915 2.918859,0 5.285041,-2.36618 5.285041,-5.285653 0,-1.320341 -0.488297,-2.525307 -1.289374,-3.453307 l 5.45206,-9.442265 c 0.279374,0.04612 0.565429,0.07103 0.858166,0.07103 2.918859,0 5.285043,-2.36618 5.285043,-5.285641 0.0012,-2.921298 -2.364969,-5.287478 -5.283828,-5.287478 m -20.70471,12.039835 c -3.724187,0 -6.753582,-3.030605 -6.753582,-6.754182 0,-3.724194 3.029395,-6.753578 6.753582,-6.753578 3.724187,0 6.753583,3.029384 6.753583,6.753578 0,3.722973 -3.029396,6.754182 -6.753583,6.754182"
   id="path31" /></svg>