<?xml version="1.0" encoding="utf-8"?>
<!-- Generator: Adobe Illustrator 15.0.0, SVG Export Plug-In . SVG Version: 6.00 Build 0)  -->
<!DOCTYPE svg PUBLIC "-//W3C//DTD SVG 1.1//EN" "http://www.w3.org/Graphics/SVG/1.1/DTD/svg11.dtd">
<svg version="1.1" id="Capa_1" xmlns="http://www.w3.org/2000/svg" xmlns:xlink="http://www.w3.org/1999/xlink" x="0px" y="0px"
	 width="690px" height="48.544px" viewBox="0 0 690 48.544" enable-background="new 0 0 690 48.544" xml:space="preserve">
<polygon fill="#305AA6" points="10.375,0.908 16.067,23.769 16.167,23.769 23.618,0.908 30.92,0.908 38.323,24.372 38.423,24.372 
	44.416,0.908 52.372,0.908 41.947,36.557 34.949,36.557 27.094,11.885 26.993,11.885 19.138,36.557 12.389,36.557 1.815,0.908 "/>
<polygon fill="#305AA6" points="80.423,0.908 80.423,8.159 64.059,8.159 64.059,14.806 79.518,14.806 79.518,22.057 64.059,22.057 
	64.059,29.307 81.331,29.307 81.331,36.557 56.204,36.557 56.204,0.908 "/>
<path fill="#305AA6" d="M101.224,0.909c6.295,0,12.74,1.56,12.74,9.062c0,3.978-2.468,6.698-6.145,7.854v0.103
	c4.18,0.503,7.806,3.624,7.806,8.711c0,7.451-7.048,9.919-13.344,9.919H87.628V0.909H101.224z M101.325,15.158
	c2.417,0,4.784-1.159,4.784-3.876c0-2.871-2.72-3.727-5.137-3.727h-5.489v7.604H101.325z M102.684,29.912
	c2.567,0,5.086-1.311,5.086-4.18c0-3.273-3.576-3.928-6.143-3.928h-6.144v8.107H102.684z"/>
<polygon fill="#305AA6" points="132.144,0.908 140.352,24.172 140.453,24.172 148.711,0.908 160.544,0.908 160.544,36.557 
	152.689,36.557 152.689,9.214 152.588,9.214 143.224,36.557 137.23,36.557 128.217,9.214 128.117,9.214 128.117,36.557 
	120.262,36.557 120.262,0.908 "/>
<polygon fill="#305AA6" points="192.322,0.908 192.322,8.159 175.958,8.159 175.958,14.806 191.417,14.806 191.417,22.057 
	175.958,22.057 175.958,29.307 193.227,29.307 193.227,36.557 168.103,36.557 168.103,0.908 "/>
<polygon fill="#305AA6" points="224.452,0.908 224.452,7.856 214.28,7.856 214.28,36.557 206.425,36.557 206.425,7.856 
	196.253,7.856 196.253,0.908 "/>
<polygon fill="#305AA6" points="236.288,0.908 236.288,14.2 251.544,14.2 251.544,0.908 259.398,0.908 259.398,36.557 
	251.544,36.557 251.544,21.15 236.288,21.15 236.288,36.557 228.433,36.557 228.433,0.908 "/>
<path fill="#305AA6" d="M303.213,18.733c0,11.33-8.058,18.731-19.236,18.731c-11.228,0-19.236-7.351-19.236-18.731
	C264.741,7.354,272.749,0,283.977,0C295.306,0,303.213,7.402,303.213,18.733 M283.977,30.213c6.646,0,11.078-4.784,11.078-11.48
	c0-6.698-4.432-11.48-11.128-11.48c-6.596,0-11.027,4.734-11.027,11.48C272.899,25.43,277.279,30.213,283.977,30.213"/>
<path fill="#305AA6" d="M320.639,0.907c11.278,0,20.796,5.085,20.796,17.877c0,11.329-9.165,17.774-19.84,17.774h-13.041V0.907
	H320.639z M320.74,29.307c7,0,12.539-2.871,12.539-10.826c0-7.1-5.639-10.323-12.036-10.323h-4.833v21.148H320.74z"/>
<path fill="#305AA6" d="M369.789,3.728L364.4,9.619c-1.259-1.61-3.777-2.366-5.691-2.366c-2.164,0-5.287,1.006-5.287,3.675
	c0,3.122,3.777,3.777,7.705,4.986c4.28,1.308,8.71,3.373,8.71,9.817c0,8.108-6.495,11.733-13.746,11.733
	c-4.582,0-8.61-1.308-11.983-4.481l5.587-6.144c1.663,2.115,4.18,3.375,6.85,3.375c2.164,0,5.438-0.958,5.438-3.727
	c0-3.123-3.776-3.929-7.754-5.238c-4.38-1.408-8.963-3.424-8.963-9.667c0-7.603,6.646-11.581,13.594-11.581
	C362.839,0.001,366.716,1.059,369.789,3.728"/>
<path fill="#305AA6" d="M381.021,34.443c0,1.36-1.057,2.417-2.418,2.417c-1.358,0-2.418-1.058-2.418-2.417
	c0-1.36,1.06-2.417,2.418-2.417C379.963,32.026,381.021,33.083,381.021,34.443"/>
<path fill="#305AA6" d="M393.46,4.081c0,1.257-0.959,2.265-2.268,2.265c-1.257,0-2.265-1.008-2.265-2.265
	c0-1.26,1.008-2.268,2.265-2.268C392.501,1.813,393.46,2.821,393.46,4.081 M389.681,13.294h3.022v23.263h-3.022V13.294z"/>
<path fill="#305AA6" d="M424.427,24.925c0,6.95-4.984,12.236-12.235,12.236c-7.15,0-12.237-5.135-12.237-12.236
	c0-7.048,5.036-12.234,12.237-12.234C419.291,12.691,424.427,17.826,424.427,24.925 M412.192,34.443
	c5.438,0,9.216-4.029,9.216-9.519c0-5.487-3.778-9.515-9.267-9.515c-5.336,0-9.164,4.027-9.164,9.515
	C402.977,30.364,406.703,34.443,412.192,34.443"/>
<g>
	<rect x="447.277" y="0.81" width="3.322" height="35.649"/>
	<path d="M479.454,22.713V36.46h-3.022V22.864c0-5.135-1.913-7.553-5.841-7.553c-4.884,0-8.056,3.576-8.056,9.618V36.46h-3.02
		V19.489c0-0.502-0.254-5.89-0.254-6.293h3.022c0.052,1.31,0.052,3.374,0.202,4.079h0.15c1.36-2.869,4.533-4.682,7.956-4.682
		C476.483,12.594,479.454,15.765,479.454,22.713"/>
	<path d="M489.226,6.5h3.021v6.696h6.647v2.718h-6.647v15.208c0,1.963,1.158,3.221,3.224,3.221c1.158,0,2.315-0.302,3.423-0.805
		l0.251,2.72c-1.359,0.503-3.022,0.806-3.978,0.806c-3.926,0-5.941-2.368-5.941-5.941V15.915h-5.035v-2.718h5.035V6.5z"/>
	<path d="M525.532,23.77v1.813h-19.538c0.252,4.886,3.375,8.763,8.813,8.763c3.121,0,6.293-1.661,7.804-4.13l2.216,1.864
		c-2.366,3.524-5.943,4.984-10.071,4.984c-7.049,0-11.783-4.984-11.783-12.284c0-6.749,4.683-12.186,11.632-12.186
		C520.749,12.593,525.532,16.874,525.532,23.77 M522.511,22.864c-0.049-4.331-3.675-7.552-8.106-7.552
		c-4.582,0-7.905,3.524-8.41,7.552H522.511z"/>
	<path d="M552.524,17.124h0.101v-3.928h3.022v21.653c0,9.012-4.632,13.695-12.437,13.695c-4.282,0-8.963-1.61-11.481-4.884
		l2.366-2.216c2.115,2.971,5.538,4.381,9.164,4.381c6.043,0,9.366-3.525,9.366-10.424v-3.473h-0.101
		c-1.763,2.77-4.783,4.53-8.812,4.53c-6.748,0-12.437-5.286-12.437-11.934c0-6.646,5.841-11.933,12.437-11.933
		C547.741,12.593,550.762,14.355,552.524,17.124 M543.512,33.742c5.188,0,9.214-4.23,9.214-9.216c0-4.984-4.079-9.214-9.265-9.214
		c-5.036,0-9.164,4.178-9.164,9.214C534.297,29.46,538.275,33.742,543.512,33.742"/>
	<path d="M575.188,12.844l-0.353,2.972c-0.401-0.151-0.806-0.203-1.208-0.203c-4.885,0-7.553,3.324-7.553,8.159V36.46h-3.021V19.49
		c0-0.502-0.251-5.891-0.251-6.294h3.019c0.052,1.763,0.101,3.524,0.202,4.08c1.762-3.123,4.28-4.684,7.401-4.684
		C573.98,12.592,574.483,12.643,575.188,12.844"/>
	<path d="M597.899,20.799v6.898c0,3.827,0.151,6.698,0.452,8.763h-2.819c-0.201-1.058-0.302-2.216-0.302-3.776h-0.1
		c-1.762,3.021-4.281,4.378-8.107,4.378c-4.985,0-8.259-2.667-8.259-6.896c0-5.29,4.734-7.806,12.69-7.806h3.726v-1.36
		c0-3.826-2.517-5.689-6.546-5.689c-2.668,0-5.037,0.856-7.098,2.619l-1.763-2.065c2.215-2.116,5.79-3.273,8.861-3.273
		C594.777,12.593,597.899,15.665,597.899,20.799 M587.123,34.345c5.388,0,8.056-3.072,8.056-7.956v-1.611h-3.625
		c-5.136,0-9.768,1.46-9.768,5.235C581.786,32.583,584.103,34.345,587.123,34.345"/>
	<path d="M607.671,6.5h3.022v6.696h6.646v2.718h-6.646v15.208c0,1.963,1.158,3.221,3.221,3.221c1.159,0,2.317-0.302,3.425-0.805
		l0.252,2.72c-1.361,0.503-3.022,0.806-3.978,0.806c-3.929,0-5.942-2.368-5.942-5.941V15.915h-5.036v-2.718h5.036V6.5z"/>
	<path d="M627.009,3.983c0,1.257-0.958,2.265-2.268,2.265c-1.258,0-2.265-1.008-2.265-2.265c0-1.26,1.007-2.268,2.265-2.268
		C626.052,1.715,627.009,2.723,627.009,3.983 M623.232,13.196h3.02v23.263h-3.02V13.196z"/>
	<path d="M657.976,24.827c0,6.95-4.983,12.236-12.235,12.236c-7.15,0-12.236-5.135-12.236-12.236
		c0-7.048,5.037-12.234,12.236-12.234C652.841,12.593,657.976,17.728,657.976,24.827 M645.741,34.345
		c5.438,0,9.214-4.029,9.214-9.519c0-5.487-3.777-9.515-9.265-9.515c-5.337,0-9.166,4.027-9.166,9.515
		C636.525,30.266,640.252,34.345,645.741,34.345"/>
	<path d="M684.667,22.713V36.46h-3.021V22.864c0-5.135-1.914-7.553-5.84-7.553c-4.886,0-8.058,3.576-8.058,9.618V36.46h-3.021
		V19.489c0-0.502-0.251-5.89-0.251-6.293h3.022c0.049,1.31,0.049,3.374,0.201,4.079h0.152c1.357-2.869,4.531-4.682,7.956-4.682
		C681.697,12.594,684.667,15.765,684.667,22.713"/>
</g>
</svg>
